<svg width="227" height="199" viewBox="0 0 227 199" fill="none" xmlns="http://www.w3.org/2000/svg">
<g clip-path="url(#clip0_36_1100)">
<path d="M125.184 133.157C91.4943 144.19 56.6936 152.729 20.973 158.584L11.4729 111.206L3.69124 72.4014L0 53.9915C13.5789 58.9498 28.2398 61.6517 43.5428 61.6517C50.1384 61.6517 56.6068 61.1541 62.9247 60.1821L70.7354 69.3466L105.941 110.604L125.184 133.157Z" fill="#33A357"/>
<path d="M180.107 132.468C176.196 133.608 172.274 134.707 168.345 135.778L160.691 120.463H160.679L151.382 101.85C155.333 100.838 159.273 99.7561 163.179 98.6047L171.886 116.014L180.107 132.468Z" fill="#DF912F"/>
<path d="M168.345 135.777C164.405 136.848 160.448 137.883 156.479 138.884L149.409 124.733H149.397L139.4 104.726C143.415 103.829 147.413 102.874 151.382 101.85L160.685 120.463H160.697L168.351 135.777H168.345Z" fill="#272525"/>
<path d="M156.473 138.884C152.498 139.891 148.512 140.863 144.508 141.789L138.022 128.823L127.221 107.219C131.3 106.456 135.361 105.623 139.394 104.726L149.391 124.733H149.403L156.473 138.884Z" fill="#CB2229"/>
<path d="M139.394 104.726C135.355 105.623 131.3 106.462 127.221 107.22L138.022 128.823L144.508 141.789C141.181 142.57 137.832 143.334 134.482 144.063L125.184 133.157L105.941 110.604L70.7353 69.3467C82.3934 67.7961 93.8779 65.7133 105.177 63.1213C109.181 62.2014 113.167 61.2178 117.119 60.1706C121.07 59.135 124.982 58.0357 128.881 56.8612C132.769 55.7099 136.64 54.4833 140.476 53.1931L163.178 98.6047C159.279 99.756 155.339 100.832 151.382 101.85C147.407 102.874 143.415 103.823 139.399 104.726" fill="#319C53"/>
<path d="M75.0515 13.353L75.0804 13.3877L76.2144 28.3899L82.3588 24.0507L84.0597 26.4633L73.4257 33.9731L73.4026 33.9384L72.2281 18.9651L66.1589 23.2523L64.4579 20.8397L75.0515 13.353Z" fill="black"/>
<path d="M117.969 15.1526L116.002 11.9184L108.701 13.1855L107.937 16.8941L104.645 17.4669L108.238 0.694278L112.224 0L121.262 14.5798L117.969 15.1526ZM109.32 10.1017L114.382 9.22233L110.737 3.23418L109.326 10.1017H109.32Z" fill="black"/>
<path d="M162.664 22.0605L159.644 21.0596L163.474 9.47092L153.418 19.2429L153.378 19.2313L151.127 5.39203L147.297 16.9807L144.277 15.9798L149.293 0.88501L153.713 2.34299L155.385 13.2374L163.213 5.4846L167.639 6.94837L162.664 22.0605Z" fill="black"/>
<path d="M195.896 42.6401C193.918 44.5493 191.331 44.3237 189 41.9053L183.081 35.7725L194.531 24.7219L200.34 30.739C202.469 32.9491 202.509 35.4369 200.722 37.1611C199.576 38.2661 198.315 38.6306 196.938 38.2546C197.487 39.7762 197.186 41.3904 195.896 42.6401ZM190.689 39.6373C191.812 40.8002 192.905 40.887 193.802 40.0134C194.6 39.2381 194.433 38.0463 193.374 36.9528L190.03 33.4872L187.299 36.1254L190.689 39.6431V39.6373ZM194.722 28.957L192.037 31.5432L195.196 34.8121C196.203 35.8593 197.25 35.9924 198.164 35.1072C198.945 34.3492 198.887 33.2731 197.939 32.2896L194.722 28.9512V28.957Z" fill="black"/>
<path d="M219.475 60.6743L204.655 66.4792L205.815 69.4422L220.635 63.6373L219.475 60.6743Z" fill="black"/>
<path d="M210.927 105.64L214.48 104.333L214.648 96.927L211.159 95.4575L211.24 92.1191L227 98.8941L226.907 102.938L210.852 108.984L210.927 105.646V105.64ZM217.558 98.1304L217.442 103.268L224.02 100.85L217.558 98.1304Z" fill="black"/>
<path d="M199.86 140.672L207.392 139.434L208.688 136.906L203.227 134.1L204.685 131.271L218.836 138.543L214.931 146.145C213.433 149.056 210.899 150.109 208.295 148.766C205.726 147.447 204.858 145.058 205.877 142.489C205.356 142.657 204.604 142.83 203.585 143.021L198.147 144.011L199.865 140.672H199.86ZM214.798 140.047L211.28 138.242L208.931 142.813C208.214 144.207 208.474 145.237 209.712 145.873C210.823 146.446 211.732 146.018 212.449 144.624L214.798 140.053V140.047Z" fill="black"/>
<path d="M182.668 161.536L180.243 163.595L190.536 175.72L192.962 173.66L182.668 161.536Z" fill="black"/>
<path d="M159.863 177.614L161.026 181.155C158.567 180.431 155.906 180.42 154.176 180.987C152.602 181.508 151.682 182.428 151.995 183.376C152.458 184.777 154.743 184.244 157.167 184.186C158.868 184.129 160.367 184.094 161.628 185.02C162.27 185.453 162.721 186.096 162.999 186.935C163.468 188.358 163.231 189.683 162.322 190.915C161.414 192.147 159.991 193.067 158.116 193.686C156.218 194.311 154.413 194.496 152.724 194.242L151.63 190.915C153.713 191.355 155.669 191.262 157.503 190.661C159.123 190.128 159.967 189.278 159.672 188.393C158.799 185.737 150.433 190.117 148.685 184.805C148.217 183.382 148.425 182.046 149.328 180.79C150.23 179.535 151.601 178.609 153.482 177.99C155.53 177.313 157.647 177.197 159.863 177.614Z" fill="black"/>
<path d="M110.13 194.155L118.959 195.161L119.306 192.112L111.015 191.169L111.345 188.323L119.63 189.266L120.104 185.129L111.27 184.122L111.599 181.235L123.593 182.601L121.794 198.413L109.8 197.048L110.13 194.155Z" fill="black"/>
</g>
<defs>
<clipPath id="clip0_36_1100">
<rect width="227" height="198.413" fill="white"/>
</clipPath>
</defs>
</svg>
