<?xml version="1.0" encoding="UTF-8"?>
<svg id="Layer_2" data-name="Layer 2" xmlns="http://www.w3.org/2000/svg" viewBox="0 0 779.06 399.05">
  <defs>
    <style>
      .cls-1 {
        fill: #e9cf20;
      }

      .cls-2 {
        fill: #e9cf21;
      }

      .cls-3, .cls-4 {
        fill: #232323;
      }

      .cls-4 {
        font-family: Montserrat-SemiBold, Montserrat;
        font-size: 118px;
        font-weight: 600;
        letter-spacing: .2em;
      }

      .cls-5 {
        fill: #b3b5b4;
        font-family: Montserrat-Bold, Montserrat;
        font-size: 38px;
        font-weight: 700;
        letter-spacing: 1.22em;
      }
    </style>
  </defs>
  <g id="Layer_1-2" data-name="Layer 1">
    <path class="cls-1" d="M219.22,305.63c-58.07,0-105.14-47.07-105.14-105.14s47.07-105.14,105.14-105.14c41.02,0,76.56,23.5,93.88,57.77-17.79-45.94-62.39-78.52-114.61-78.52-67.86,0-122.87,55.01-122.87,122.87s55.01,122.87,122.87,122.87c39.52,0,74.68-18.67,97.16-47.66-19.17,20.28-46.32,32.95-76.43,32.95Z"/>
    <text class="cls-4" transform="translate(161.54 238.78)"><tspan x="0" y="0">InLight</tspan></text>
    <text class="cls-5" transform="translate(339.59 304.01)"><tspan x="0" y="0">ZAMBIA</tspan></text>
    <polygon class="cls-2" points="209.98 55.01 205.33 54.54 207.64 0 220.26 1.3 209.98 55.01"/>
    <polygon class="cls-2" points="273.38 72.52 267.9 69.35 283.16 34.03 294.14 40.37 273.38 72.52"/>
    <polygon class="cls-2" points="147.89 61.9 141.91 63.98 125.35 27.54 137.33 23.38 147.89 61.9"/>
    <polygon class="cls-2" points="98.23 88.78 93.6 93.61 50.18 54.05 59.15 45.08 98.23 88.78"/>
    <polygon class="cls-2" points="65.61 134.46 62.72 141.14 21.66 126.53 26.69 114.88 65.61 134.46"/>
    <polygon class="cls-2" points="54.49 192.85 54.49 201.5 0 203.82 0 191.14 54.49 192.85"/>
    <polygon class="cls-2" points="59.93 251.46 62.72 258.96 24.5 273.41 21.42 261.11 59.93 251.46"/>
    <polygon class="cls-2" points="87.8 296.81 92.89 302.97 53.89 341.31 45.81 331.53 87.8 296.81"/>
    <path class="cls-3" d="M145.63,335.86h108.97c0,8.19-6.65,14.84-14.84,14.84h-79.29c-8.19,0-14.84-6.65-14.84-14.84h0Z"/>
    <path class="cls-3" d="M157.57,359.08h88.28c0,8.19-6.65,14.84-14.84,14.84h-58.6c-8.19,0-14.84-6.65-14.84-14.84h0Z"/>
    <path class="cls-3" d="M185.84,382.3h33.5c0,9.24-7.51,16.75-16.75,16.75h0c-9.24,0-16.75-7.51-16.75-16.75h0Z"/>
  </g>
</svg>