<?xml version="1.0" encoding="UTF-8"?>
<svg id="Layer_2" data-name="Layer 2" xmlns="http://www.w3.org/2000/svg" viewBox="0 0 470.24 599.32">
  <defs>
    <style>
      .cls-1 {
        fill: #e9cf20;
      }

      .cls-2 {
        fill: #e9cf21;
      }

      .cls-3 {
        fill: #232323;
      }
    </style>
  </defs>
  <g id="Layer_1-2" data-name="Layer 1">
    <path class="cls-1" d="M329.24,459.02c-87.21,0-157.9-70.7-157.9-157.9s70.7-157.9,157.9-157.9c61.61,0,114.98,35.29,141,86.76-26.72-69-93.71-117.93-172.14-117.93-101.92,0-184.54,82.62-184.54,184.54s82.62,184.54,184.54,184.54c59.36,0,112.17-28.04,145.92-71.58-28.79,30.47-69.56,49.48-114.79,49.48Z"/>
    <polygon class="cls-2" points="315.36 82.62 308.37 81.91 311.86 0 330.8 1.95 315.36 82.62"/>
    <polygon class="cls-2" points="410.59 108.91 402.35 104.15 425.28 51.1 441.77 60.63 410.59 108.91"/>
    <polygon class="cls-2" points="222.12 92.97 213.13 96.09 188.26 41.36 206.25 35.12 222.12 92.97"/>
    <polygon class="cls-2" points="147.53 133.33 140.57 140.59 75.36 81.18 88.83 67.71 147.53 133.33"/>
    <polygon class="cls-2" points="98.54 201.94 94.2 211.98 32.54 190.03 40.09 172.54 98.54 201.94"/>
    <polygon class="cls-2" points="81.83 289.63 81.83 302.62 0 306.11 0 287.07 81.83 289.63"/>
    <polygon class="cls-2" points="90 377.67 94.2 388.92 36.8 410.63 32.17 392.16 90 377.67"/>
    <polygon class="cls-2" points="131.87 445.78 139.51 455.03 80.93 512.6 68.8 497.92 131.87 445.78"/>
    <path class="cls-3" d="M218.72,504.42h163.66v7.45c0,8.19-6.65,14.84-14.84,14.84H233.56c-8.19,0-14.84-6.65-14.84-14.84v-7.45h0Z"/>
    <path class="cls-3" d="M236.65,539.29h132.59v7.45c0,8.19-6.65,14.84-14.84,14.84h-102.91c-8.19,0-14.84-6.65-14.84-14.84v-7.45h0Z"/>
    <path class="cls-3" d="M279.11,574.17h50.31v8.41c0,9.24-7.51,16.75-16.75,16.75h-16.81c-9.24,0-16.75-7.51-16.75-16.75v-8.41h0Z"/>
  </g>
</svg>