<svg width="28" height="24" viewBox="0 0 28 24" fill="none" xmlns="http://www.w3.org/2000/svg">
<path d="M25.1335 6.06402C25.1505 6.31086 25.1505 6.55771 25.1505 6.80682C25.1505 14.3975 19.3719 23.1518 8.80553 23.1518V23.1473C5.68418 23.1518 2.62767 22.2577 0 20.5719C0.45387 20.6265 0.910014 20.6538 1.3673 20.655C3.95401 20.6572 6.46679 19.7893 8.50181 18.1911C6.04363 18.1445 3.88804 16.5417 3.135 14.2018C3.9961 14.3679 4.88336 14.3338 5.72854 14.1029C3.04855 13.5614 1.12046 11.2067 1.12046 8.47215C1.12046 8.44712 1.12046 8.42324 1.12046 8.39935C1.91899 8.84412 2.81308 9.09096 3.72765 9.11826C1.20349 7.43132 0.425432 4.07337 1.94971 1.44798C4.8663 5.03684 9.16953 7.2186 13.789 7.44952C13.326 5.45431 13.9585 3.36356 15.4509 1.961C17.7646 -0.213937 21.4035 -0.10246 23.5785 2.21011C24.865 1.95645 26.0981 1.48438 27.2265 0.815517C26.7976 2.14528 25.9001 3.27483 24.7012 3.9926C25.8399 3.85838 26.9523 3.55352 28 3.08828C27.2288 4.244 26.2573 5.2507 25.1335 6.06402Z" fill="black"/>
</svg>
