<svg width="503" height="200" viewBox="0 0 503 200" fill="none" xmlns="http://www.w3.org/2000/svg">
<path fill-rule="evenodd" clip-rule="evenodd" d="M180 94.2698C177.301 94.3543 174.614 93.877 172.11 92.8682C169.605 91.8594 167.337 90.3412 165.45 88.4099C163.578 86.5158 162.107 84.2632 161.126 81.7871C160.145 79.3111 159.673 76.6624 159.74 73.9998C159.67 71.3252 160.142 68.6641 161.129 66.1771C162.115 63.6901 163.595 61.4288 165.48 59.5298C167.368 57.6098 169.633 56.1001 172.131 55.0952C174.63 54.0903 177.308 53.6119 180 53.6898C183.419 53.6631 186.787 54.5172 189.78 56.1698C192.682 57.7302 195.103 60.0538 196.78 62.8898L190.15 66.7298C189.194 65.0001 187.765 63.5781 186.03 62.6298C183.589 61.3793 180.822 60.91 178.104 61.2857C175.387 61.6614 172.851 62.8638 170.84 64.7298C169.668 65.9621 168.756 67.4182 168.16 69.0111C167.564 70.6039 167.295 72.3007 167.37 73.9998C167.305 75.689 167.581 77.3741 168.18 78.9546C168.78 80.5352 169.691 81.9789 170.86 83.1998C172.876 85.0644 175.417 86.264 178.138 86.636C180.858 87.0081 183.628 86.5346 186.07 85.2798C187.801 84.3787 189.227 82.9873 190.17 81.2798L196.8 85.1298C195.115 87.9595 192.696 90.2814 189.8 91.8498C186.796 93.4845 183.421 94.318 180 94.2698ZM208.84 70.4101C209.437 68.7249 210.614 67.3071 212.16 66.4101C213.73 65.5107 215.512 65.048 217.32 65.0701V73.0701C215.264 72.7754 213.17 73.2489 211.44 74.4001C209.71 75.5601 208.84 77.4701 208.84 80.1501V93.4901H201.65V65.6201H208.84V70.4101ZM233.758 94.227C237.653 94.2451 241.398 92.7262 244.18 89.9998C246.902 87.2142 248.415 83.4672 248.392 79.5723C248.368 75.6774 246.809 71.9491 244.053 69.197C241.296 66.4448 237.566 64.8909 233.671 64.8727C229.776 64.8545 226.031 66.3735 223.25 69.0998C220.527 71.8854 219.014 75.6325 219.037 79.5274C219.061 83.4223 220.62 87.1506 223.377 89.9027C226.133 92.6549 229.863 94.2088 233.758 94.227ZM230.783 86.7164C229.857 86.343 229.019 85.7824 228.32 85.0698V84.9998C226.954 83.4934 226.198 81.533 226.198 79.4998C226.198 77.4667 226.954 75.5063 228.32 73.9998C229.026 73.3018 229.868 72.7555 230.793 72.3943C231.718 72.0332 232.707 71.865 233.7 71.8998C234.701 71.8747 235.698 72.0542 236.628 72.4273C237.558 72.8004 238.403 73.3593 239.11 74.0698C240.492 75.5678 241.26 77.5315 241.26 79.5698C241.26 81.6082 240.492 83.5718 239.11 85.0698C238.404 85.7823 237.56 86.3425 236.63 86.7157C235.699 87.089 234.702 87.2674 233.7 87.2398C232.702 87.268 231.709 87.0898 230.783 86.7164ZM284.93 65.6201H291.83L283.7 93.4901H276.65L271.38 76.6001L266.11 93.4901H259.06L250.87 65.6201H258.47L263.24 82.7301L268.32 65.6201H275.13L280.2 82.7901L284.93 65.6201ZM324.78 54.4702H317.59L317.56 68.9102C315.46 66.1969 312.46 64.8402 308.56 64.8402C306.745 64.8223 304.947 65.1933 303.288 65.9281C301.629 66.6629 300.146 67.7445 298.94 69.1002C296.376 71.9776 294.96 75.6967 294.96 79.5502C294.96 83.4037 296.376 87.1229 298.94 90.0002C300.148 91.3626 301.635 92.4491 303.3 93.1858C304.965 93.9226 306.769 94.2924 308.59 94.2702C310.305 94.3565 312.017 94.0322 313.582 93.3244C315.147 92.6165 316.521 91.5455 317.59 90.2002V93.4702H324.78V54.4702ZM306.897 86.8846C305.942 86.5062 305.076 85.9364 304.35 85.2102C302.934 83.665 302.149 81.6456 302.149 79.5502C302.149 77.4548 302.934 75.4354 304.35 73.8902C305.077 73.166 305.944 72.5974 306.898 72.2192C307.852 71.8409 308.874 71.661 309.9 71.6902C310.921 71.6592 311.939 71.8384 312.888 72.2169C313.838 72.5953 314.699 73.1649 315.42 73.8902C316.816 75.4448 317.588 77.4606 317.588 79.5502C317.588 81.6398 316.816 83.6557 315.42 85.2102C314.701 85.9375 313.839 86.5083 312.889 86.8869C311.94 87.2655 310.922 87.4437 309.9 87.4102C308.873 87.4418 307.851 87.2629 306.897 86.8846ZM335.54 73.5298C335.54 74.2798 336.03 74.8798 337.02 75.3398C338.172 75.869 339.375 76.2811 340.61 76.5698C342.049 76.9311 343.465 77.3786 344.85 77.9098C346.274 78.4591 347.517 79.394 348.44 80.6098C349.461 81.9741 349.983 83.6471 349.92 85.3498C349.982 86.631 349.72 87.9071 349.159 89.0605C348.598 90.214 347.756 91.2076 346.71 91.9498C344.363 93.5644 341.557 94.378 338.71 94.2698C332.977 94.2698 329.073 92.0565 327 87.6298L333.24 84.1198C334.06 86.5398 335.883 87.7498 338.71 87.7498C341.27 87.7498 342.55 86.9498 342.55 85.3498C342.55 84.6098 342.06 83.9998 341.07 83.5398C339.914 83.0128 338.712 82.5911 337.48 82.2798C336.04 81.9027 334.624 81.4385 333.24 80.8898C331.833 80.3348 330.595 79.4213 329.65 78.2398C328.633 76.9505 328.108 75.341 328.17 73.6998C328.114 72.4569 328.357 71.2187 328.879 70.0893C329.401 68.9599 330.187 67.9724 331.17 67.2098C333.342 65.581 336.007 64.7446 338.72 64.8398C340.911 64.7974 343.074 65.3246 345 66.3698C346.851 67.3843 348.377 68.9031 349.4 70.7498L343.27 74.0898C342.911 73.2135 342.29 72.4698 341.491 71.9612C340.693 71.4526 339.756 71.2041 338.81 71.2498C337.996 71.2163 337.191 71.4288 336.5 71.8598C336.206 72.0274 335.961 72.2705 335.793 72.5642C335.624 72.8578 335.537 73.1912 335.54 73.5298ZM367.571 93.9255C371.392 94.0007 375.094 92.594 377.9 90.0001C380.494 87.1934 381.901 83.4917 381.826 79.6707C381.751 75.8497 380.199 72.2061 377.497 69.5038C374.794 66.8014 371.151 65.25 367.33 65.1747C363.509 65.0995 359.807 66.5062 357 69.1001C354.407 71.9068 353 75.6086 353.075 79.4296C353.15 83.2506 354.702 86.8941 357.404 89.5965C360.107 92.2988 363.75 93.8502 367.571 93.9255ZM364.464 86.7175C363.538 86.3441 362.699 85.7832 362 85.0701V85.0001C360.635 83.4937 359.879 81.5332 359.879 79.5001C359.879 77.467 360.635 75.5066 362 74.0001C362.706 73.3011 363.548 72.7541 364.473 72.393C365.398 72.0318 366.388 71.8641 367.38 71.9001C368.382 71.8761 369.378 72.0561 370.308 72.4292C371.238 72.8022 372.083 73.3605 372.79 74.0701C374.173 75.5681 374.94 77.5317 374.94 79.5701C374.94 81.6085 374.173 83.5721 372.79 85.0701C372.084 85.7816 371.24 86.3412 370.31 86.7143C369.379 87.0875 368.383 87.2664 367.38 87.2401C366.383 87.2689 365.389 87.091 364.464 86.7175ZM405.66 65.6201H412.85V93.4901H405.66V90.3701C403.913 92.9701 401.143 94.2701 397.35 94.2701C395.947 94.3134 394.55 94.0627 393.25 93.534C391.95 93.0052 390.774 92.2102 389.8 91.2001C387.8 89.2001 386.8 86.3301 386.8 82.7301V65.6201H394V81.8401C393.946 82.6149 394.052 83.3925 394.31 84.125C394.568 84.8576 394.973 85.5297 395.5 86.1001C396.034 86.6016 396.663 86.991 397.35 87.2452C398.037 87.4994 398.768 87.6133 399.5 87.5801C400.329 87.6242 401.159 87.4929 401.934 87.1948C402.71 86.8967 403.413 86.4385 404 85.8501C405.22 84.4121 405.824 82.5507 405.68 80.6701L405.66 65.6201ZM429.93 66.4101C428.383 67.3071 427.207 68.7249 426.61 70.4101V65.6201H419.42V93.4901H426.61V80.1501C426.61 77.4701 427.48 75.5601 429.21 74.4001C430.94 73.2489 433.033 72.7754 435.09 73.0701V65.0701C433.281 65.048 431.499 65.5107 429.93 66.4101ZM451.48 94.2701C449.536 94.3096 447.604 93.9558 445.8 93.23C443.997 92.5043 442.358 91.4214 440.983 90.0466C439.608 88.6718 438.526 87.0333 437.8 85.2296C437.074 83.4258 436.72 81.494 436.76 79.5501C436.72 77.6067 437.074 75.6753 437.8 73.8721C438.526 72.0689 439.609 70.431 440.984 69.057C442.359 67.6829 443.997 66.6011 445.801 65.8764C447.605 65.1518 449.536 64.7993 451.48 64.8401C454.085 64.8261 456.645 65.5172 458.89 66.8401C461.049 68.0398 462.821 69.8296 464 72.0001L457.81 75.6201C457.262 74.4754 456.38 73.5235 455.28 72.8901C454.121 72.2164 452.8 71.8708 451.46 71.8901C450.469 71.8586 449.482 72.0324 448.561 72.4007C447.64 72.769 446.806 73.3238 446.11 74.0301C444.745 75.523 443.988 77.4725 443.988 79.4951C443.988 81.5177 444.745 83.4672 446.11 84.9601C446.806 85.6665 447.64 86.2212 448.561 86.5895C449.482 86.9578 450.469 87.1316 451.46 87.1001C452.816 87.1171 454.152 86.7719 455.33 86.1001C456.438 85.4828 457.325 84.5355 457.87 83.3901L464.07 87.0001C462.849 89.1911 461.059 91.0118 458.89 92.2701C456.649 93.6005 454.086 94.2921 451.48 94.2701ZM482.02 87.7498C477.746 87.7498 475.126 86.0031 474.16 82.5098L495.19 82.6198C495.374 81.6304 495.468 80.6262 495.47 79.6198C495.568 75.736 494.131 71.97 491.47 69.1398C490.18 67.7562 488.611 66.6633 486.866 65.9339C485.121 65.2045 483.24 64.8554 481.35 64.9098C479.389 64.8403 477.436 65.1785 475.613 65.9032C473.79 66.6279 472.137 67.7232 470.76 69.1198C469.401 70.5019 468.335 72.1446 467.627 73.949C466.919 75.7534 466.583 77.6823 466.64 79.6198C466.58 81.5689 466.92 83.5097 467.639 85.3224C468.357 87.1352 469.44 88.7814 470.82 90.1598C473.6 92.9464 477.296 94.3398 481.91 94.3398C487.263 94.3398 491.313 92.3398 494.06 88.3398L488.26 84.9998C487.52 85.9288 486.565 86.6644 485.478 87.1434C484.391 87.6224 483.204 87.8305 482.02 87.7498ZM488.26 76.9298H474.049C474.365 75.2915 475.255 73.8198 476.56 72.7798C477.942 71.7574 479.631 71.2355 481.35 71.2998C482.922 71.2831 484.458 71.7741 485.73 72.6998C487.076 73.7405 487.98 75.2513 488.26 76.9298ZM180 145.94C177.301 146.025 174.614 145.547 172.11 144.539C169.605 143.53 167.337 142.012 165.45 140.08C161.764 136.172 159.711 131.003 159.711 125.63C159.711 120.258 161.764 115.089 165.45 111.18C167.344 109.26 169.614 107.752 172.117 106.75C174.621 105.749 177.305 105.276 180 105.36C183.419 105.333 186.787 106.188 189.78 107.84C192.682 109.401 195.103 111.724 196.78 114.56L190.15 118.4C189.194 116.67 187.765 115.248 186.03 114.3C183.589 113.05 180.822 112.58 178.104 112.956C175.387 113.332 172.851 114.534 170.84 116.4C168.591 118.945 167.349 122.224 167.349 125.62C167.349 129.017 168.591 132.296 170.84 134.84C172.854 136.709 175.394 137.912 178.115 138.286C180.837 138.66 183.607 138.187 186.05 136.93C187.781 136.029 189.207 134.638 190.15 132.93L196.78 136.78C195.095 139.61 192.676 141.932 189.78 143.5C186.783 145.139 183.416 145.979 180 145.94ZM212.16 118.08C210.614 118.977 209.437 120.395 208.84 122.08V117.29H201.65V145.14H208.84V131.82C208.84 129.14 209.71 127.23 211.44 126.07C213.17 124.919 215.264 124.445 217.32 124.74V116.74C215.512 116.718 213.73 117.181 212.16 118.08ZM226.51 134.18C227.476 137.667 230.096 139.414 234.37 139.42C235.558 139.496 236.747 139.282 237.834 138.796C238.921 138.31 239.874 137.567 240.61 136.63L246.41 139.97C243.663 143.97 239.613 145.97 234.26 145.97C229.653 145.97 225.956 144.577 223.17 141.79C221.05 139.735 219.599 137.09 219.004 134.198C218.41 131.307 218.699 128.304 219.836 125.579C220.972 122.855 222.902 120.535 225.375 118.923C227.847 117.311 230.748 116.481 233.7 116.54C235.59 116.486 237.471 116.835 239.216 117.564C240.961 118.294 242.53 119.387 243.82 120.77C246.485 123.598 247.923 127.366 247.82 131.25C247.813 132.256 247.719 133.26 247.54 134.25L226.51 134.18ZM226.4 128.6H240.61C240.334 126.92 239.43 125.407 238.08 124.37C236.81 123.442 235.273 122.951 233.7 122.97C231.981 122.906 230.292 123.428 228.91 124.45C227.61 125.494 226.721 126.964 226.4 128.6ZM281.19 117.29H274V120.58C272.918 119.23 271.53 118.157 269.951 117.45C268.372 116.742 266.648 116.42 264.92 116.51C263.114 116.495 261.327 116.867 259.677 117.602C258.028 118.337 256.556 119.417 255.36 120.77C252.791 123.644 251.37 127.365 251.37 131.22C251.37 135.075 252.791 138.796 255.36 141.67C256.554 143.026 258.025 144.109 259.675 144.846C261.325 145.583 263.113 145.956 264.92 145.94C266.647 146.028 268.371 145.704 269.949 144.997C271.528 144.29 272.916 143.218 274 141.87V145.16H281.19V117.29ZM263.265 138.556C262.317 138.178 261.457 137.607 260.74 136.88C259.337 135.328 258.561 133.311 258.561 131.22C258.561 129.128 259.337 127.111 260.74 125.56C261.458 124.835 262.318 124.265 263.266 123.887C264.214 123.508 265.23 123.329 266.25 123.36C267.276 123.331 268.297 123.511 269.251 123.889C270.206 124.267 271.073 124.836 271.8 125.56C273.215 127.105 274 129.125 274 131.22C274 133.315 273.215 135.335 271.8 136.88C271.074 137.606 270.207 138.176 269.253 138.554C268.298 138.933 267.276 139.112 266.25 139.08C265.229 139.113 264.213 138.935 263.265 138.556ZM303.43 124.2H297.13V135.79C297.094 136.175 297.141 136.563 297.267 136.929C297.393 137.294 297.595 137.629 297.86 137.91C298.453 138.401 299.201 138.667 299.97 138.66C301.123 138.729 302.278 138.729 303.43 138.66V145.19C298.477 145.73 295 145.253 293 143.76C291 142.267 290 139.6 290 135.76V124.2H285.15V117.29H290V111.66L297.19 109.48V117.29H303.49L303.43 124.2ZM323.641 145.994C327.067 145.644 330.265 144.115 332.69 141.67C334.082 140.313 335.182 138.687 335.924 136.89C336.665 135.093 337.031 133.163 337 131.22C337.004 127.776 335.813 124.437 333.63 121.774C331.447 119.111 328.407 117.287 325.029 116.616C321.651 115.945 318.145 116.466 315.109 118.092C312.074 119.718 309.696 122.347 308.383 125.531C307.07 128.715 306.903 132.255 307.91 135.549C308.917 138.842 311.036 141.684 313.905 143.589C316.774 145.494 320.215 146.344 323.641 145.994ZM319.298 138.386C318.374 138.013 317.537 137.452 316.84 136.74C315.468 135.236 314.708 133.275 314.708 131.24C314.708 129.205 315.468 127.243 316.84 125.74C317.538 125.029 318.376 124.47 319.299 124.097C320.223 123.724 321.214 123.544 322.21 123.57C323.212 123.545 324.208 123.724 325.138 124.097C326.069 124.47 326.913 125.029 327.62 125.74C329.002 127.238 329.77 129.201 329.77 131.24C329.77 133.278 329.002 135.242 327.62 136.74C326.914 137.452 326.07 138.012 325.14 138.386C324.209 138.759 323.212 138.937 322.21 138.91C321.213 138.938 320.222 138.759 319.298 138.386ZM348 122.08C348.592 120.396 349.766 118.977 351.31 118.08C352.879 117.181 354.661 116.719 356.47 116.74V124.74C354.413 124.448 352.32 124.921 350.59 126.07C348.86 127.23 348 129.14 348 131.82V145.14H340.81V117.29H348V122.08ZM368.73 127.01C367.74 126.55 367.25 125.95 367.25 125.2C367.241 124.868 367.319 124.54 367.475 124.248C367.631 123.955 367.86 123.708 368.14 123.53C368.835 123.1 369.643 122.888 370.46 122.92C371.404 122.873 372.34 123.122 373.137 123.631C373.935 124.139 374.554 124.884 374.91 125.76L381.05 122.42C380.023 120.573 378.494 119.054 376.64 118.04C374.744 117.011 372.617 116.484 370.46 116.51C367.743 116.417 365.077 117.253 362.9 118.88C361.918 119.644 361.133 120.631 360.611 121.76C360.089 122.89 359.845 124.127 359.9 125.37C359.843 127.009 360.363 128.616 361.37 129.91C362.318 131.092 363.559 132.005 364.97 132.56C366.35 133.109 367.763 133.573 369.2 133.95C370.435 134.261 371.64 134.683 372.8 135.21C373.78 135.67 374.28 136.28 374.28 137.02C374.28 138.62 372.99 139.42 370.43 139.42C367.61 139.42 365.78 138.21 364.97 135.79L358.72 139.3C360.806 143.727 364.71 145.94 370.43 145.94C373.276 146.046 376.081 145.233 378.43 143.62C379.473 142.875 380.312 141.881 380.871 140.728C381.43 139.575 381.691 138.3 381.63 137.02C381.691 135.319 381.173 133.648 380.16 132.28C379.231 131.066 377.985 130.132 376.56 129.58C375.176 129.046 373.759 128.598 372.32 128.24C371.085 127.951 369.882 127.539 368.73 127.01Z" fill="#000000"/>
<path d="M84.51 104C84.51 111.25 84.42 118.51 84.51 125.76C84.59 129.76 83.22 132.18 79.09 133.15C71.91 134.84 64.83 136.89 57.68 138.7C53.04 139.88 50.83 138.46 50.32 133.88C49.68 128.17 45.44 124.88 41.74 121.51C32.74 113.39 26.06 103.63 23.62 91.9902C19 69.4302 24.52 49.4802 42.38 34.2002C70.51 10.1102 113.81 18.6502 130.58 51.3002C142.85 75.2002 137.47 103.41 117.98 120.79C112.54 125.64 108.11 130.92 108.08 138.85C108.08 143.61 104.38 145.57 100.37 146.67C89.32 149.67 78.25 152.67 67.19 155.6C65.02 156.18 62.87 156.86 60.68 157.27C57.6 157.86 54.53 157.58 53.68 153.97C52.83 150.36 55.5 148.79 58.42 147.78C60.16 147.18 61.97 146.78 63.75 146.29C73.7 143.62 83.65 140.92 93.62 138.29C96.1701 137.62 97.8201 136.29 98.41 133.66C100.11 126.14 104.61 120.36 109.99 115.16C117.53 107.9 123.42 99.6802 125.99 89.2802C127.896 81.5083 127.811 73.3813 125.743 65.6509C123.676 57.9206 119.691 50.8366 114.159 45.0545C108.628 39.2724 101.727 34.9789 94.0953 32.5712C86.4639 30.1635 78.3485 29.7195 70.5 31.2802C51.42 35.0002 39.32 46.7002 33.9 64.9402C28.9 81.7302 33.13 96.8502 44.45 110.03C49.17 115.51 54.88 120.16 58.25 126.75C58.97 128.15 60.05 127.93 61.25 127.58C64.8 126.58 68.35 125.58 71.95 124.75C74.14 124.24 74.79 123.17 74.77 120.91C74.66 107.59 74.68 94.2702 74.77 80.9102C74.77 76.1402 78.41 73.9902 82.41 76.1902C84.35 77.2602 84.49 79.0702 84.5 80.9602V103.96" fill="#FFD902"/>
<path d="M67.2705 174.08C64.5705 174 62.2705 173.25 61.7805 170.43C61.2205 167.25 63.3205 165.43 65.9905 164.62C72.9205 162.56 79.9205 160.75 86.9005 158.87C90.2005 157.98 93.5205 157.15 96.8305 156.27C98.7202 155.645 100.761 155.645 102.65 156.27C105.6 157.37 106.37 160.08 104.49 162.61C103.237 164.152 101.488 165.213 99.5405 165.61C89.4005 168.363 79.2505 171.097 69.0905 173.81C68.4907 173.939 67.8825 174.026 67.2705 174.07" fill="#FFD902"/>
<path d="M65.8703 98.3C65.8703 101.6 65.9503 104.89 65.8703 108.18C65.7603 111.94 63.8703 114.01 60.7403 113.81C57.3303 113.59 55.9603 111.48 55.9603 108.25C55.9603 101.53 55.9003 94.81 55.9603 88.09C55.9603 84.48 58.0803 82.09 61.0703 82.41C64.3203 82.73 65.8403 84.84 65.8803 88.03C65.8803 91.45 65.8803 94.88 65.8803 98.3" fill="#FFD902"/>
<path d="M103.32 98.2099C103.32 101.62 103.32 105.04 103.32 108.45C103.32 111.86 101.53 113.75 98.3199 113.8C95.1099 113.85 93.52 111.71 93.48 108.69C93.38 101.69 93.3099 94.7699 93.5599 87.8099C93.6499 85.3799 95.02 82.9399 97.76 82.6099C100.76 82.2599 103.23 85.0899 103.29 88.3599C103.35 91.6299 103.29 94.9299 103.29 98.2099" fill="#FFD902"/>
<path d="M104.8 69.2102C104.809 70.0688 104.643 70.9203 104.311 71.7124C103.98 72.5046 103.49 73.2208 102.872 73.8171C102.255 74.4134 101.521 74.8774 100.718 75.1805C99.9146 75.4837 99.0578 75.6197 98.2 75.5802C96.5452 75.521 94.9769 74.8257 93.822 73.6391C92.667 72.4524 92.0144 70.866 92 69.2102C92.0655 67.55 92.7711 65.9797 93.9688 64.8282C95.1666 63.6768 96.7636 63.0337 98.425 63.0337C100.086 63.0337 101.683 63.6768 102.881 64.8282C104.079 65.9797 104.784 67.55 104.85 69.2102" fill="white"/>
<path d="M86 62.24C85.9899 63.4937 85.6107 64.7166 84.9096 65.7559C84.2086 66.7953 83.217 67.6051 82.0584 68.0842C80.8999 68.5633 79.6259 68.6905 78.3955 68.4499C77.1652 68.2092 76.033 67.6114 75.1404 66.7311C74.2477 65.8508 73.6342 64.727 73.3765 63.5001C73.1188 62.2732 73.2282 60.9976 73.6912 59.8325C74.1542 58.6674 74.9501 57.6646 75.9796 56.9492C77.0092 56.2338 78.2267 55.8376 79.48 55.81C80.3367 55.7799 81.1906 55.9249 81.9893 56.2362C82.788 56.5476 83.5148 57.0186 84.1252 57.6205C84.7355 58.2225 85.2166 58.9426 85.539 59.7369C85.8614 60.5312 86.0182 61.383 86 62.24Z" fill="white"/>
<path d="M67.2298 69.19C67.2244 70.0749 67.0393 70.9495 66.686 71.7608C66.3326 72.5721 65.8183 73.3033 65.1742 73.91C64.53 74.5168 63.7695 74.9865 62.9385 75.2907C62.1076 75.595 61.2235 75.7274 60.3398 75.68C57.3398 75.68 54.3998 72.44 54.4498 69.1C54.4618 67.4053 55.1465 65.7847 56.3533 64.5948C57.5601 63.4049 59.1901 62.7431 60.8848 62.755C62.5796 62.767 64.2002 63.4517 65.3901 64.6584C66.58 65.8652 67.2418 67.4953 67.2298 69.19Z" fill="white"/>
</svg>
