<svg width="47" height="47" viewBox="0 0 47 47" fill="none" xmlns="http://www.w3.org/2000/svg">
<path d="M23.5 7.38965C20.3228 7.38965 17.2169 8.33404 14.5751 10.1034C11.9333 11.8728 9.87427 14.3876 8.65839 17.33C7.44251 20.2723 7.12438 23.51 7.74423 26.6336C8.36408 29.7572 9.89407 32.6264 12.1407 34.8784C14.3874 37.1303 17.2498 38.664 20.366 39.2853C23.4822 39.9066 26.7122 39.5877 29.6476 38.3689C32.583 37.1502 35.0919 35.0863 36.8571 32.4382C38.6223 29.7902 39.5645 26.6769 39.5645 23.4922C39.5645 21.3776 39.1489 19.2836 38.3416 17.33C37.5343 15.3764 36.351 13.6012 34.8593 12.106C33.3676 10.6107 31.5966 9.42461 29.6476 8.61538C27.6986 7.80615 25.6096 7.38965 23.5 7.38965ZM29.9001 31.2861L23.5 24.5583L16.6598 31.3045L15.1193 29.8155L23.5 21.5621L31.8073 29.8339L29.9001 31.2861ZM34.6314 26.6355L23.5 15.7718L12.497 26.6355L10.8832 24.7973L23.4083 12.4263L35.9701 24.9443L34.6314 26.6355Z" fill="#93C5FD"/>
</svg>
