<svg xmlns="http://www.w3.org/2000/svg" id="Layer_1" data-name="Layer 1" viewBox="0 0 177.84 50.04"><defs><style>.cls-1{fill:#3e575a;}.cls-2{fill:#ba886d;}</style></defs><path class="cls-1" d="M116.48,46.32v4.16h-2.9V38.05H118a6.9,6.9,0,0,1,2.26.31,4.23,4.23,0,0,1,1.55.86,3.24,3.24,0,0,1,.9,1.29,4.16,4.16,0,0,1,.29,1.6,4.62,4.62,0,0,1-.3,1.72,3.37,3.37,0,0,1-.91,1.33,4.19,4.19,0,0,1-1.56.86,7,7,0,0,1-2.23.31Zm0-2.17H118a2.13,2.13,0,0,0,1.6-.54,2.49,2.49,0,0,0,.36-2.28,1.42,1.42,0,0,0-.39-.6,1.88,1.88,0,0,0-.65-.39,2.8,2.8,0,0,0-1-.13h-1.47Z" transform="translate(-52.58 -14.79)"></path><path class="cls-1" d="M131.43,45.88v4.6h-2.85V38.05h4a7.76,7.76,0,0,1,2.3.28,4.34,4.34,0,0,1,1.55.77,2.88,2.88,0,0,1,.87,1.17,3.84,3.84,0,0,1,.28,1.47,4,4,0,0,1-.16,1.14,3.84,3.84,0,0,1-.48,1,3.57,3.57,0,0,1-.78.82,4.82,4.82,0,0,1-1.07.58,3.17,3.17,0,0,1,.54.36,2.21,2.21,0,0,1,.44.52l2.64,4.33H136.1a1.13,1.13,0,0,1-1-.55L133,46.33a1,1,0,0,0-.32-.34,1,1,0,0,0-.52-.1Zm0-2h1.15a3.37,3.37,0,0,0,1-.15,2,2,0,0,0,.68-.41,1.73,1.73,0,0,0,.38-.62,2.46,2.46,0,0,0,.12-.76,1.62,1.62,0,0,0-.53-1.28,2.48,2.48,0,0,0-1.65-.45h-1.15Z" transform="translate(-52.58 -14.79)"></path><path class="cls-1" d="M155.79,44.26a6.54,6.54,0,0,1-.47,2.51A6,6,0,0,1,152,50.13a7.53,7.53,0,0,1-5.29,0,5.89,5.89,0,0,1-3.35-3.36,7,7,0,0,1,0-5,5.91,5.91,0,0,1,3.35-3.35,7.31,7.31,0,0,1,5.29,0,6,6,0,0,1,2,1.35,5.93,5.93,0,0,1,1.31,2A6.63,6.63,0,0,1,155.79,44.26Zm-3,0a5.5,5.5,0,0,0-.23-1.66,3.48,3.48,0,0,0-.69-1.25,2.84,2.84,0,0,0-1.1-.78,3.53,3.53,0,0,0-1.47-.28,3.62,3.62,0,0,0-1.49.28,3,3,0,0,0-1.1.78A3.48,3.48,0,0,0,146,42.6a5.9,5.9,0,0,0,0,3.33,3.57,3.57,0,0,0,.69,1.25,3.07,3.07,0,0,0,1.1.78,3.79,3.79,0,0,0,1.49.27,3.91,3.91,0,0,0,1.47-.27,3,3,0,0,0,1.1-.78,3.62,3.62,0,0,0,.71-1.25,5.59,5.59,0,0,0,.25-1.67Z" transform="translate(-52.58 -14.79)"></path><path class="cls-1" d="M168.15,40.58a1.48,1.48,0,0,1-.26.3.69.69,0,0,1-.37.1,1,1,0,0,1-.42-.12l-.51-.28a4.06,4.06,0,0,0-.65-.27,2.38,2.38,0,0,0-.84-.13,1.81,1.81,0,0,0-1.21.35,1.16,1.16,0,0,0-.39.93.85.85,0,0,0,.24.62,2.22,2.22,0,0,0,.62.43,7.34,7.34,0,0,0,.89.33l1,.33a7.35,7.35,0,0,1,1,.43,3.5,3.5,0,0,1,.89.63,3.14,3.14,0,0,1,.62.94,3.32,3.32,0,0,1,.24,1.32,4.31,4.31,0,0,1-.3,1.62,3.92,3.92,0,0,1-.86,1.31,4.07,4.07,0,0,1-1.4.87,5.29,5.29,0,0,1-1.89.32,5.83,5.83,0,0,1-1.18-.12,7.81,7.81,0,0,1-1.17-.33,7.29,7.29,0,0,1-1-.52,5.54,5.54,0,0,1-.87-.66l.86-1.35a.63.63,0,0,1,.26-.25.78.78,0,0,1,.37-.09.93.93,0,0,1,.51.16l.59.36a5.28,5.28,0,0,0,.76.36,3.08,3.08,0,0,0,1,.16A1.94,1.94,0,0,0,165.9,48a1.33,1.33,0,0,0,.44-1.09,1,1,0,0,0-.24-.71,1.87,1.87,0,0,0-.63-.45,5.44,5.44,0,0,0-.88-.32l-1-.3a7.24,7.24,0,0,1-1-.41,3.48,3.48,0,0,1-.88-.64,2.92,2.92,0,0,1-.63-1,4.07,4.07,0,0,1-.24-1.46,3.57,3.57,0,0,1,.28-1.37,3.51,3.51,0,0,1,.83-1.18,3.81,3.81,0,0,1,1.34-.83,4.92,4.92,0,0,1,1.82-.32,6.92,6.92,0,0,1,1.11.09,5.68,5.68,0,0,1,1,.27,5,5,0,0,1,.91.42,3.61,3.61,0,0,1,.75.55Z" transform="translate(-52.58 -14.79)"></path><path class="cls-1" d="M177.42,46.32v4.16h-2.84V38.05H179a6.88,6.88,0,0,1,2.25.31,4.23,4.23,0,0,1,1.55.86,3.24,3.24,0,0,1,.9,1.29,4.17,4.17,0,0,1,.3,1.6,4.68,4.68,0,0,1-.39,1.72,3.5,3.5,0,0,1-.92,1.33,4.23,4.23,0,0,1-1.55.86,7.29,7.29,0,0,1-2.23.31Zm0-2.17h1.5a1.83,1.83,0,0,0,2.11-2,2.28,2.28,0,0,0-.13-.78,1.58,1.58,0,0,0-.38-.6,2.09,2.09,0,0,0-.66-.39,2.71,2.71,0,0,0-.94-.13h-1.5Z" transform="translate(-52.58 -14.79)"></path><path class="cls-1" d="M197.48,38.05v2.22h-5.1v2.9h3.9V45.3h-3.9v3h5.1v2.22h-8V38.05Z" transform="translate(-52.58 -14.79)"></path><path class="cls-1" d="M206.06,45.88v4.6h-2.89V38.05h4a7.76,7.76,0,0,1,2.3.28,4.34,4.34,0,0,1,1.55.77,2.88,2.88,0,0,1,.87,1.17,3.87,3.87,0,0,1,.27,1.47,4,4,0,0,1-.16,1.14,3.84,3.84,0,0,1-.48,1,3.57,3.57,0,0,1-.78.82,4.82,4.82,0,0,1-1.07.58,3.17,3.17,0,0,1,.54.36,2.21,2.21,0,0,1,.44.52l2.64,4.33h-2.61a1.13,1.13,0,0,1-1-.55l-2.06-3.61a1,1,0,0,0-.32-.34,1,1,0,0,0-.52-.1Zm0-2h1.16a3.37,3.37,0,0,0,1-.15,2,2,0,0,0,.68-.41,1.73,1.73,0,0,0,.38-.62,2.46,2.46,0,0,0,.12-.76,1.62,1.62,0,0,0-.53-1.28,2.44,2.44,0,0,0-1.65-.46h-1.16Z" transform="translate(-52.58 -14.79)"></path><path class="cls-1" d="M230.42,44.26a6.54,6.54,0,0,1-.47,2.51,6.3,6.3,0,0,1-1.31,2,6.17,6.17,0,0,1-2,1.34,7.53,7.53,0,0,1-5.29,0A5.89,5.89,0,0,1,218,46.75a7,7,0,0,1,0-5,5.91,5.91,0,0,1,3.35-3.35,7.31,7.31,0,0,1,5.29,0A6,6,0,0,1,230,41.76,6.43,6.43,0,0,1,230.42,44.26Zm-3,0a5.5,5.5,0,0,0-.23-1.66,3.48,3.48,0,0,0-.69-1.25,2.84,2.84,0,0,0-1.1-.78,3.53,3.53,0,0,0-1.47-.28,3.62,3.62,0,0,0-1.49.28,3,3,0,0,0-1.1.78,3.48,3.48,0,0,0-.69,1.25,5.9,5.9,0,0,0,0,3.33,3.57,3.57,0,0,0,.69,1.25,3.07,3.07,0,0,0,1.1.78,3.79,3.79,0,0,0,1.49.27A3.91,3.91,0,0,0,225.4,48a3,3,0,0,0,1.1-.78,3.57,3.57,0,0,0,.69-1.25,6,6,0,0,0,.27-1.67Z" transform="translate(-52.58 -14.79)"></path><path class="cls-2" d="M67.65,37.07l9.61,8.17h0v-.06l8.13-9.57c.26-.3.5-.6.72-.91a13,13,0,0,0,1.74-3.48,12.53,12.53,0,0,0-3.42-13c-.16-.16-.32-.3-.48-.44l-.5-.4a12,12,0,0,0-3.86-2,12.66,12.66,0,0,0-4.74-.52,12.23,12.23,0,0,0-4.69,1.34,12.61,12.61,0,0,0-3.94,3.13,12.37,12.37,0,0,0-2.43,4.35,12.83,12.83,0,0,0-.53,4.81,12.67,12.67,0,0,0,1.32,4.69,12.16,12.16,0,0,0,2.56,3.44A5.88,5.88,0,0,0,67.65,37.07Z" transform="translate(-52.58 -14.79)"></path><path class="cls-1" d="M100.47,32.28A22.07,22.07,0,0,0,96.7,20a21.39,21.39,0,0,1,2.42,9.76c0,10.12-7.36,18.6-12.33,23.6L89,55.2C95,49.83,100.48,41.29,100.47,32.28Z" transform="translate(-52.58 -14.79)"></path><path class="cls-1" d="M98.26,29.74a20.4,20.4,0,0,0-2.46-9.61,19.83,19.83,0,0,1,1.47,7.42c0,5.61-2.51,10.41-5.43,14.33s-6.21,7-7.89,9l2.18,1.9C91.08,47.83,98.27,39.45,98.26,29.74Z" transform="translate(-52.58 -14.79)"></path><polygon class="cls-1" points="31.01 35.9 31.03 35.92 31.03 35.92 31.01 35.9"></polygon><path class="cls-1" d="M103,35A24,24,0,0,0,97.67,19.9a22.94,22.94,0,0,1,3.66,12.38c0,9.32-5.57,18-11.69,23.48l2.17,1.86C98.63,52,103,43.53,103,35Z" transform="translate(-52.58 -14.79)"></path><path class="cls-1" d="M105.93,37.71a25.87,25.87,0,0,0-7.28-18A24.82,24.82,0,0,1,103.9,35c0,8.77-4.5,17.37-11.42,23.17L94.66,60A28.59,28.59,0,0,0,105.93,37.71Z" transform="translate(-52.58 -14.79)"></path><path class="cls-1" d="M57.33,38.35a16.41,16.41,0,0,1-2.22-5.67,18.25,18.25,0,0,0,2.54,8.08c1.85,3.12,4.81,6.2,9.18,9.89h0c.28.29,1.26,1.13,2.61,2.2s3.08,2.42,4.93,3.79a73,73,0,0,0,10.34,6.68,5.24,5.24,0,0,0,.69.28l-17-14.49C62.86,44.69,59.41,41.66,57.33,38.35Z" transform="translate(-52.58 -14.79)"></path><path class="cls-1" d="M59.85,56.49a24.87,24.87,0,0,0,18.59,8.34h1.11A31.43,31.43,0,0,1,71,61.91a35.17,35.17,0,0,1-9-6.28c-6-5.75-9.26-12.5-9.37-19.8a15.31,15.31,0,0,0-.07,1.8A28.38,28.38,0,0,0,59.85,56.49Z" transform="translate(-52.58 -14.79)"></path><path class="cls-1" d="M62.63,55h0a34.44,34.44,0,0,0,8.77,6.11,27.92,27.92,0,0,0,10.36,3.08c-.72-.22-1.43-.49-2.13-.78a48.1,48.1,0,0,1-6.22-3.21,55.41,55.41,0,0,1-9.27-6.76C57.34,47.39,54,41.59,53.52,34.69v.72c0,7.23,3.06,13.87,9.06,19.61Z" transform="translate(-52.58 -14.79)"></path><path class="cls-1" d="M56.91,41.2a18.88,18.88,0,0,1-2.57-7.56c.15,7.09,3.33,12.88,10.38,19.19h0a44,44,0,0,0,6.17,4.78,56.08,56.08,0,0,0,9,5,19.07,19.07,0,0,0,3.84,1.22c-.38-.19-.79-.4-1.21-.65-1.59-.9-3.46-2.14-5.37-3.47C73.33,57,69.38,54,67.41,52.33c-.55-.46-.93-.8-1.15-1C61.87,47.59,58.84,44.45,56.91,41.2Z" transform="translate(-52.58 -14.79)"></path><path class="cls-2" d="M113.59,58.63h.72v4.18h2.29v.69h-3Z" transform="translate(-52.58 -14.79)"></path><path class="cls-2" d="M124,58.63h.71V63.5H124Z" transform="translate(-52.58 -14.79)"></path><path class="cls-2" d="M132.33,58.63H133l1.35,3.18,1.33-3.18h.67V63.5h-.71v-3h0l-1,2.33H134l-1-2.33h0v3h-.71Z" transform="translate(-52.58 -14.79)"></path><path class="cls-2" d="M144.09,58.63h.71V63.5h-.71Z" transform="translate(-52.58 -14.79)"></path><path class="cls-2" d="M153.24,59.29H152v-.66h3.3v.66H154V63.5h-.71Z" transform="translate(-52.58 -14.79)"></path><path class="cls-2" d="M162.44,58.63h3v.7h-2.29v1.39h2v.65h-2v1.44h2.29v.69h-3Z" transform="translate(-52.58 -14.79)"></path><path class="cls-2" d="M172.83,58.63h1.65a1.57,1.57,0,0,1,1.43.83,1.38,1.38,0,0,1,.22.57c0,.2,0,.54,0,1a7,7,0,0,1,0,1.09,1,1,0,0,1-.08.28l-.13.25a1.67,1.67,0,0,1-.58.57,1.58,1.58,0,0,1-.89.24h-1.6Zm.71,4.18h.86a1,1,0,0,0,.87-.43.8.8,0,0,0,.15-.4,8.49,8.49,0,0,0,0-.89c0-.42,0-.72,0-.91a.84.84,0,0,0-.18-.44.94.94,0,0,0-.84-.41h-.86Z" transform="translate(-52.58 -14.79)"></path></svg>