<?xml version="1.0" encoding="UTF-8"?>
<svg width="283px" height="146px" viewBox="0 0 283 146" version="1.1" xmlns="http://www.w3.org/2000/svg" xmlns:xlink="http://www.w3.org/1999/xlink">
    <!-- Generator: Sketch 59.1 (86144) - https://sketch.com -->
    <title>Group 2</title>
    <desc>Created with Sketch.</desc>
    <g id="Page-3" stroke="none" stroke-width="1" fill="none" fill-rule="evenodd">
        <g id="Group-2" fill-rule="nonzero">
            <g id="SvgjsG1286" transform="translate(33.703655, 0.000000)" fill="#05B6D4">
                <g id="Group">
                    <path d="M211.383305,36.6082819 L211.383305,36.6082819 C204.17974,32.7112712 197.212357,28.2238044 190.244974,23.9725201 C183.159501,19.6031445 176.074027,15.3518601 168.634279,11.4548495 C161.194531,7.55783884 153.518601,4.01510188 144.897941,1.77136848 C143.83512,1.53518601 142.772299,1.29900355 141.591387,1.06282109 L139.93811,0.708547391 C139.347654,0.590456159 138.757197,0.590456159 138.284832,0.590456159 C137.10392,0.472364927 136.041099,0.354273695 134.860187,0.354273695 L131.435541,0.590456159 C130.254629,0.590456159 129.191808,0.826638623 128.128987,1.06282109 C127.066165,1.29900355 125.885253,1.41709478 124.822432,1.65327725 C122.69679,2.2437334 120.571148,2.71609833 118.563597,3.42464572 C108.525842,6.84929145 99.4328172,11.5729407 90.4578836,16.29659 C81.4829499,21.1383305 72.7441988,26.3343447 63.8873564,30.9399027 C59.7541633,33.1836361 57.038065,36.1359169 57.7466124,38.1434679 C58.573251,40.0329276 62.9426266,39.9148364 67.3120021,37.6711029 C76.405027,32.9474537 85.1437781,27.7514395 93.8825293,23.0277902 C102.739372,18.3041409 111.596214,13.6985829 120.80733,10.6282109 C122.69679,9.91966347 124.58625,9.44729854 126.475709,8.97493362 C127.420439,8.73875115 128.365169,8.62065992 129.309899,8.38447746 C130.254629,8.26638623 131.199359,7.91211253 132.144088,7.91211253 L134.860187,7.67593007 C135.804917,7.67593007 136.749646,7.7940213 137.576285,7.7940213 C138.04865,7.7940213 138.521015,7.7940213 138.99338,7.91211253 L140.410475,8.14829499 C141.355204,8.26638623 142.299934,8.38447746 143.244664,8.62065992 C150.802503,10.3920284 158.478433,13.4624004 165.800089,16.7689549 C173.239837,20.1936006 180.561493,23.9725201 188.001241,27.6333482 C195.440989,31.2941764 202.762645,35.1911871 210.556666,38.2615591 C212.682308,39.0881977 213.272765,37.5530117 211.383305,36.6082819 Z" id="Path"></path>
                    <path d="M109.588663,51.2515946 L68.4929145,51.2515946 C46.0555804,51.2515946 23.5001551,52.1963245 1.18091232,54.0857842 C-0.236182464,54.2038754 -0.236182464,55.8571526 1.18091232,55.9752439 C23.5001551,57.8647036 46.0555804,58.8094334 68.4929145,58.8094334 L109.588663,58.8094334 C112.895218,58.8094334 115.493225,57.1561562 115.493225,55.030514 C115.493225,52.9048719 112.895218,51.2515946 109.588663,51.2515946 Z" id="Path"></path>
                </g>
            </g>
            <g id="SvgjsG1287" transform="translate(0.000000, 86.450740)" fill="#000000">
                <path d="M7.4106925,26.7869422 C4.41026578,26.7869422 -0.0361497195,25.4494025 0.397646915,23.8949646 L0.75914411,22.5935747 C1.73518654,18.9063033 2.89197756,24.3649109 8.85668128,24.3649109 C11.9294074,24.3649109 13.5561448,22.8466227 13.5561448,20.6776396 C13.5561448,18.9063033 12.3270544,18.1471592 9.86887343,16.628871 L6.1093026,14.3152889 C2.31358205,11.9655572 0.795293829,10.4111192 0.795293829,7.77218969 C0.795293829,3.39807363 5.02481101,0.325347476 9.57967567,0.325347476 C12.3270544,0.325347476 15.7974274,1.51828822 15.3997805,2.74737868 L14.9659839,4.0849183 C13.917642,7.48299194 12.9777493,2.71122896 8.02523773,2.71122896 C5.38630821,2.71122896 4.01261887,4.0849183 4.01261887,6.03700316 C4.01261887,7.62759082 4.95251157,8.56748352 7.4106925,10.049622 L11.3871616,12.4716532 C15.1467325,14.7852353 16.6650207,16.4119727 16.6650207,18.9786027 C16.6650207,23.461168 12.2547549,26.7869422 7.4106925,26.7869422 L7.4106925,26.7869422 Z M47.3199828,26.5700438 C46.7415873,26.5700438 46.4162399,26.3169958 46.0185929,25.8831992 L28.739027,7.55529138 L28.739027,21.6898317 C28.739027,24.1118629 30.1850158,24.5456595 32.1732504,25.0156059 C32.4624481,25.0879053 32.3178492,26.2085466 31.956352,26.2085466 L23.5696171,26.2085466 C23.2804194,26.2085466 23.063521,25.1240551 23.3888685,25.0156059 C24.9794562,24.5456595 26.3892952,24.1841624 26.3892952,21.6898317 L26.3892952,7.51914166 C26.3892952,5.06096073 26.027798,3.72342111 24.9794562,2.42203121 C24.6902584,2.06053401 24.4010607,1.77133626 24.4010607,1.6628871 C24.4010607,1.33753962 24.617959,0.903742988 25.0879053,0.903742988 L27.6906851,0.903742988 C28.0521823,0.903742988 28.3052304,0.939892707 28.5582784,1.22909046 L45.4763471,19.3762497 L45.4763471,5.38630821 C45.4763471,2.81967812 43.8857595,2.53048037 42.0782735,2.06053401 C41.7890758,1.98823457 41.9336746,0.903742988 42.2951718,0.903742988 L50.645757,0.903742988 C50.9711045,0.903742988 51.1518531,1.98823457 50.8626554,2.06053401 C49.235918,2.53048037 47.8622286,2.81967812 47.8622286,5.38630821 L47.8622286,19.593148 C47.8622286,21.90673 47.9345281,24.5456595 48.2960253,25.8831992 C48.4406241,26.425445 47.8622286,26.5700438 47.3199828,26.5700438 Z M83.903499,25.0156059 C84.4095951,25.0879053 84.2649962,26.2085466 83.8311995,26.2085466 L74.5407216,26.2085466 C74.0707753,26.2085466 74.0346256,25.0879053 74.4322725,25.0156059 C75.8059618,24.7625579 77.2158009,24.2564618 75.8782613,21.1475859 L75.4083149,20.0630943 C75.0468177,19.2316508 74.359973,19.1593513 73.2393317,19.1593513 L65.7924895,19.1593513 C64.7079979,19.1593513 64.0211533,19.2316508 63.6958058,20.0630943 L63.2620091,21.1475859 C61.9606192,24.2926115 63.3343086,24.7625579 65.1056448,25.0156059 C65.5394415,25.0879053 65.467142,26.2085466 64.9971957,26.2085466 L57.2611557,26.2085466 C56.8273591,26.2085466 56.7189099,25.0879053 57.1527065,25.0156059 C58.634845,24.7625579 59.5024383,24.2203121 60.8761277,21.1475859 L66.9854303,7.15764446 C68.3952693,3.97646915 68.8290659,2.45818093 68.8290659,1.08449159 C68.8290659,0.867593268 71.3595463,0.289197756 71.4679955,0.542245793 L80.288527,21.1114362 C81.5899169,24.2203121 82.4575102,24.7987076 83.903499,25.0156059 L83.903499,25.0156059 Z M73.1308826,17.2434162 C73.6369786,17.2434162 74.2153742,17.1711168 73.9984758,16.6650207 L69.5882101,6.14545232 L65.1417946,16.6650207 C64.9248962,17.1711168 65.5032918,17.2434162 66.0093878,17.2434162 L73.1308826,17.2434162 L73.1308826,17.2434162 Z M111.341136,8.56748352 C111.341136,15.0382833 105.267983,17.6772128 97.3150449,16.4842721 L97.3150449,21.7621311 C97.3150449,24.2926115 99.0140817,24.7264081 101.399963,25.0156059 C101.653011,25.0517556 101.472263,26.2085466 101.183065,26.2085466 L90.4465982,26.2085466 C90.1574005,26.2085466 89.9405021,25.0517556 90.2296999,25.0156059 C92.0371859,24.7625579 93.2662763,24.0757132 93.2662763,21.7621311 L93.2662763,5.53090709 C93.2662763,3.1450256 91.9648864,2.45818093 90.2296999,1.98823457 C89.9405021,1.91593513 90.1212507,0.795293829 90.4465982,0.831443549 C91.8564373,1.01219215 93.4831747,1.04834187 94.603816,1.04834187 C97.170446,1.04834187 99.3755789,0.831443549 101.219215,0.831443549 C106.713972,0.831443549 111.341136,2.89197756 111.341136,8.56748352 L111.341136,8.56748352 Z M100.387771,2.63892952 C98.0018896,2.63892952 97.3150449,3.47037307 97.3150449,5.53090709 L97.3150449,14.7490856 C103.568946,15.6528285 106.96702,14.2429895 106.96702,9.39892707 C106.96702,4.88021213 104.038893,2.63892952 100.387771,2.63892952 L100.387771,2.63892952 Z M155.91374,25.0156059 C156.202938,25.0517556 155.98604,26.2085466 155.696842,26.2085466 L146.008717,26.2085466 C145.719519,26.2085466 145.502621,25.0517556 145.791819,25.0156059 C147.635454,24.7625579 148.828395,24.0757132 148.828395,21.7621311 L148.828395,15.4359302 C148.647647,14.821385 147.888503,14.821385 147.201658,14.821385 L137.513533,14.821385 C136.826688,14.821385 136.067544,14.821385 135.886796,15.4359302 L135.886796,21.7621311 C135.886796,24.2926115 137.332784,24.7987076 138.887222,25.0156059 C139.17642,25.0517556 138.959522,26.2085466 138.670324,26.2085466 L129.018349,26.2085466 C128.729151,26.2085466 128.512253,25.0517556 128.801451,25.0156059 C130.608937,24.7625579 131.838027,24.0757132 131.838027,21.7621311 L131.838027,5.31400877 C131.838027,3.03657644 130.608937,2.31358205 128.801451,2.06053401 C128.512253,2.02438429 128.729151,0.903742988 129.018349,0.903742988 L138.670324,0.903742988 C138.959522,0.903742988 139.17642,2.02438429 138.887222,2.06053401 C137.332784,2.27743233 135.886796,2.7835284 135.886796,5.31400877 L135.886796,12.0740063 C136.067544,12.6885515 136.826688,12.6885515 137.513533,12.6885515 L147.201658,12.6885515 C147.888503,12.6885515 148.647647,12.6885515 148.828395,12.0740063 L148.828395,5.31400877 C148.828395,3.03657644 147.635454,2.31358205 145.791819,2.06053401 C145.502621,2.02438429 145.719519,0.903742988 146.008717,0.903742988 L155.696842,0.903742988 C155.98604,0.903742988 156.202938,2.02438429 155.91374,2.06053401 C154.323153,2.27743233 152.877164,2.7835284 152.877164,5.31400877 L152.877164,21.7621311 C152.877164,24.2926115 154.323153,24.7987076 155.91374,25.0156059 Z M176.012984,26.7869422 C168.493843,26.7869422 162.999085,21.1837356 162.999085,13.7007437 C162.999085,6.39850035 168.168495,0.325347476 176.085284,0.325347476 C183.640575,0.325347476 189.099183,5.89240428 189.099183,13.3753962 C189.099183,20.7137893 183.965923,26.7869422 176.012984,26.7869422 Z M177.386674,24.4372104 C180.640148,24.4372104 185.086564,22.3405267 185.086564,15.3274811 C185.086564,7.95293829 180.025603,2.67507924 174.711594,2.67507924 C171.45812,2.67507924 167.084004,4.77176298 167.084004,11.7125091 C167.084004,19.1593513 172.108815,24.4372104 177.386674,24.4372104 L177.386674,24.4372104 Z M228.06858,25.0156059 C228.357778,25.0517556 228.14088,26.2085466 227.887832,26.2085466 L218.741953,26.2085466 C218.488905,26.2085466 218.308156,25.0517556 218.525054,25.0156059 C219.971043,24.7987076 221.127834,24.1118629 221.019385,21.7621311 L220.36869,9.21817848 L214.259388,21.5452328 C213.572543,22.9912216 212.957998,24.617959 212.849548,25.2325042 C212.777249,25.6663009 212.090404,25.8831992 211.548159,25.8831992 C211.005913,25.8831992 210.680565,25.6663009 210.463667,25.2325042 L202.004633,9.14587904 L201.462387,21.7621311 C201.353938,24.2564618 202.727627,24.871007 203.956717,25.0156059 C204.245915,25.0517556 204.029017,26.2085466 203.739819,26.2085466 L196.401426,26.2085466 C196.112228,26.2085466 195.89533,25.0517556 196.184528,25.0156059 C197.738966,24.8348573 199.076505,24.2926115 199.221104,21.7621311 L200.341746,0.939892707 C200.377895,0.361497195 201.679285,0.325347476 202.004633,0.939892707 L212.524201,20.6776396 L222.284625,0.939892707 C222.573823,0.325347476 223.911363,0.361497195 223.947512,0.976042427 L225.104303,21.7621311 C225.212753,24.2926115 226.514142,24.8348573 228.06858,25.0156059 L228.06858,25.0156059 Z M234.430931,26.2808461 C234.069434,26.3169958 233.924835,25.1240551 234.214033,25.0517556 C236.310716,24.5095098 237.973604,24.1841624 237.973604,21.5090831 L237.973604,5.38630821 C237.973604,3.03657644 236.455315,2.38588149 234.900877,2.02438429 C234.61168,1.95208485 234.792428,0.795293829 235.081626,0.831443549 C237.756705,1.08449159 241.986222,1.04834187 244.408254,1.04834187 C247.697878,1.04834187 250.119909,0.903742988 253.011887,0.831443549 C253.87948,0.831443549 253.87948,1.40983906 253.698732,2.24128261 L252.831138,5.63935624 C252.722689,6.14545232 251.818946,6.14545232 251.674347,5.63935624 C251.132101,3.90416971 250.04761,2.81967812 245.492745,2.81967812 C242.853816,2.81967812 242.022372,3.47037307 242.022372,5.42245793 L242.022372,11.3510119 C242.022372,12.2909046 242.492318,12.4716532 243.215313,12.4716532 L243.974457,12.4716532 C247.011033,12.4716532 249.505364,12.2186052 251.023652,10.8087661 C251.385149,10.4834187 252.180443,10.5557181 251.855096,11.2425628 L249.758412,15.7974274 C249.505364,16.4119727 248.963118,16.3396732 248.565471,15.8335771 C247.734028,14.6767861 245.854242,14.2068398 243.685259,14.2068398 L243.215313,14.2068398 C242.492318,14.2068398 242.022372,14.3875884 242.022372,15.3274811 L242.022372,21.5090831 C242.022372,23.5696171 242.926115,24.2926115 245.998841,24.2926115 C251.638198,24.2926115 253.662582,21.8705803 254.530175,20.4245915 C254.819373,19.9907949 255.723116,20.1715435 255.723116,20.7860887 C255.723116,22.7020239 254.204828,26.2808461 251.963545,26.2808461 C250.04761,26.1723969 247.914776,26.0639478 244.8782,26.0639478 C241.516276,26.0639478 237.756705,25.9554986 234.430931,26.2808461 L234.430931,26.2808461 Z M269.893806,26.7869422 C266.893379,26.7869422 262.446964,25.4494025 262.88076,23.8949646 L263.242257,22.5935747 C264.2183,18.9063033 265.375091,24.3649109 271.339795,24.3649109 C274.412521,24.3649109 276.039258,22.8466227 276.039258,20.6776396 C276.039258,18.9063033 274.810168,18.1471592 272.351987,16.628871 L268.592416,14.3152889 C264.796695,11.9655572 263.278407,10.4111192 263.278407,7.77218969 C263.278407,3.39807363 267.507924,0.325347476 272.062789,0.325347476 C274.810168,0.325347476 278.280541,1.51828822 277.882894,2.74737868 L277.449097,4.0849183 C276.400755,7.48299194 275.460863,2.71122896 270.508351,2.71122896 C267.869422,2.71122896 266.495732,4.0849183 266.495732,6.03700316 C266.495732,7.62759082 267.435625,8.56748352 269.893806,10.049622 L273.870275,12.4716532 C277.629846,14.7852353 279.148134,16.4119727 279.148134,18.9786027 C279.148134,23.461168 274.737868,26.7869422 269.893806,26.7869422 L269.893806,26.7869422 Z" id="Shape"></path>
            </g>
            <g id="SvgjsG1288" transform="translate(5.943747, 129.841679)" fill="#000000">
                <path d="M0.314835147,15.7417574 C0.14530853,15.7417574 0,15.5964488 0,15.4269222 L0,0.920287354 C0,0.750760736 0.14530853,0.605452207 0.314835147,0.605452207 L3.80223986,0.605452207 C3.9233303,0.605452207 4.04442074,0.678106471 4.09285692,0.774978825 L7.72557016,9.73567148 L11.3340653,0.774978825 C11.3825015,0.678106471 11.5035919,0.605452207 11.6246824,0.605452207 L15.1120871,0.605452207 C15.2816137,0.605452207 15.4269222,0.750760736 15.4269222,0.920287354 L15.4269222,15.4269222 C15.4269222,15.5964488 15.2816137,15.7417574 15.1120871,15.7417574 L12.2785708,15.7417574 C12.1090441,15.7417574 11.9637356,15.5964488 11.9637356,15.4269222 L11.9637356,7.6286978 L9.00912884,15.1363052 C8.96069266,15.2331775 8.83960222,15.3058318 8.74272986,15.3058318 L6.70841045,15.3058318 C6.58732001,15.3058318 6.46622957,15.2331775 6.41779339,15.1363052 L3.43896853,7.6286978 L3.43896853,15.4269222 C3.43896853,15.5964488 3.29366,15.7417574 3.12413339,15.7417574 L0.314835147,15.7417574 Z M32.544267,15.7417574 C31.0911817,15.7417574 29.7591869,15.4027041 28.5967186,14.7245977 C27.4100323,14.0464912 26.4655269,13.0777677 25.7632023,11.9152994 C25.0850958,10.7286131 24.7460426,9.37240016 24.7460426,7.91931486 C24.7460426,6.49044766 25.0850958,5.1584528 25.7632023,3.97176648 C26.4655269,2.78508015 27.3858142,1.84057471 28.5725005,1.16246824 C29.7591869,0.484361765 31.0911817,0.14530853 32.544267,0.14530853 C33.9731342,0.14530853 35.3051291,0.484361765 36.4918154,1.16246824 C37.6785017,1.84057471 38.6230072,2.78508015 39.3011136,3.97176648 C40.0034382,5.1584528 40.3424914,6.49044766 40.3424914,7.91931486 C40.3424914,9.37240016 40.0034382,10.704395 39.3011136,11.8910813 C38.6230072,13.0777677 37.6785017,14.0222731 36.4918154,14.7245977 C35.3051291,15.4027041 33.9731342,15.7417574 32.544267,15.7417574 L32.544267,15.7417574 Z M32.5927032,12.2543527 C33.2950278,12.2543527 33.9489161,12.060608 34.5301503,11.6973366 C35.1356025,11.3098472 35.6199642,10.8012674 35.9590175,10.1231609 C36.3222888,9.46927251 36.4918154,8.71851178 36.4918154,7.91931486 C36.4918154,7.14433604 36.3222888,6.3935753 35.9590175,5.73968692 C35.6199642,5.08579854 35.1356025,4.57721868 34.5301503,4.18972927 C33.9489161,3.82645795 33.2950278,3.63271324 32.5927032,3.63271324 C31.8661605,3.63271324 31.2122722,3.82645795 30.60682,4.18972927 C29.9771497,4.57721868 29.4927879,5.08579854 29.1295166,5.73968692 C28.7662452,6.41779339 28.5967186,7.14433604 28.5967186,7.91931486 C28.5967186,8.71851178 28.7662452,9.46927251 29.1295166,10.1231609 C29.517006,10.7770493 30.0013677,11.3098472 30.60682,11.6731185 C31.2122722,12.060608 31.8661605,12.2543527 32.5927032,12.2543527 Z M50.2186278,15.7417574 C50.0248831,15.7417574 49.9037927,15.5964488 49.9037927,15.4269222 L49.9037927,0.920287354 C49.9037927,0.750760736 50.0248831,0.605452207 50.2186278,0.605452207 L55.7161339,0.605452207 C57.1692192,0.605452207 58.501214,0.920287354 59.6636823,1.57417574 C60.8261505,2.20384603 61.7222198,3.0999153 62.3761081,4.26238354 C63.0057784,5.40063368 63.3448317,6.70841045 63.3448317,8.16149575 C63.3448317,9.63879913 63.0057784,10.9465759 62.3518901,12.084826 C61.6980017,13.2472943 60.7777143,14.1433635 59.591028,14.7730338 C58.4285598,15.4269222 57.0723468,15.7417574 55.5950434,15.7417574 L50.2186278,15.7417574 Z M53.6575964,12.351225 L55.7887881,12.351225 C56.4911127,12.351225 57.1450011,12.1816984 57.7020171,11.8426452 C58.2590331,11.4793738 58.7191768,10.9950121 59.034012,10.3653418 C59.3488471,9.73567148 59.5183737,9.00912884 59.5183737,8.18571383 C59.5183737,7.38651692 59.3488471,6.63575619 59.0097939,6.00608589 C58.6707406,5.35219751 58.210597,4.86783574 57.6293628,4.50456442 C57.0481287,4.16551118 56.3700223,3.97176648 55.6434796,3.97176648 L53.6575964,3.97176648 L53.6575964,12.351225 L53.6575964,12.351225 Z M72.9061329,15.7417574 L72.9061329,1.2351225 C72.9061329,0.629670295 73.0272234,0.508579854 73.2209681,0.508579854 L83.8284907,0.508579854 C83.9980173,0.508579854 84.1433259,0.629670295 84.1433259,0.799196913 L84.1433259,3.53584089 C84.1433259,3.7053675 83.9980173,3.85067603 83.8284907,3.85067603 L76.6599366,3.85067603 L76.6599366,6.36935721 L81.1887191,6.36935721 C81.3582457,6.36935721 81.5035543,6.51466574 81.5035543,6.68419236 L81.5035543,9.39661825 C81.5035543,9.56614487 81.3582457,9.7114534 81.1887191,9.7114534 L76.6599366,9.7114534 L76.6599366,12.3027888 L83.8042726,12.3027888 C83.9737993,12.3027888 84.1191078,12.4480974 84.1191078,12.617624 L84.1191078,15.3300499 C84.1191078,15.4995765 83.9737993,15.644885 83.8042726,15.644885 L73.2209681,15.644885 C73.0272234,15.644885 72.9061329,15.4995765 72.9061329,15.7417574 L72.9061329,15.7417574 Z M94.0194623,15.7417574 C93.8257176,15.7417574 93.7046271,15.5964488 93.7046271,15.4269222 L93.7046271,0.920287354 C93.7046271,0.750760736 93.8257176,0.605452207 94.0194623,0.605452207 L99.9286758,0.605452207 C101.769251,0.605452207 103.222336,1.06559588 104.239496,2.01010133 C105.741017,3.36631427 106.249597,5.93343163 105.523054,7.82244251 C105.256655,8.50054898 104.796512,9.13021928 104.215277,9.59036295 C103.876224,9.85676192 103.512953,10.0505066 103.149682,10.2442513 C104.191059,11.8910813 105.765235,15.2331775 105.765235,15.2331775 C105.789453,15.2816137 105.837889,15.354268 105.837889,15.4269222 C105.837889,15.5964488 105.692581,15.7417574 105.523054,15.7417574 L101.938777,15.7417574 C101.841905,15.7417574 101.720814,15.6691031 101.672378,15.5722308 L99.5654045,10.9465759 C98.8146437,10.9950121 98.2334096,10.970794 97.4584308,10.970794 L97.4584308,15.4269222 C97.4584308,15.5964488 97.3131223,15.7417574 97.1435957,15.7417574 L94.0194623,15.7417574 L94.0194623,15.7417574 Z M97.4584308,7.60447972 C97.4584308,7.60447972 100.50991,7.94353295 101.575506,7.24120839 C101.987213,6.97480942 102.229394,6.32092104 102.229394,5.83655927 C102.205176,5.30376133 101.938777,4.7467453 101.502852,4.40769206 C101.042708,4.02020265 99.9044577,3.89911221 99.3232236,3.89911221 L97.4584308,3.94754839 L97.4584308,7.60447972 L97.4584308,7.60447972 Z M115.738244,15.7417574 C115.568717,15.7417574 115.423409,15.5964488 115.423409,15.4269222 L115.423409,0.920287354 C115.423409,0.750760736 115.568717,0.605452207 115.738244,0.605452207 L118.595978,0.605452207 C118.692851,0.605452207 118.789723,0.653888383 118.862377,0.726542648 L124.432538,9.32396398 L124.432538,0.920287354 C124.432538,0.750760736 124.577846,0.605452207 124.747373,0.605452207 L127.726198,0.605452207 C127.895724,0.605452207 128.041033,0.750760736 128.041033,0.920287354 L128.041033,15.4269222 C128.041033,15.5964488 127.895724,15.7417574 127.726198,15.7417574 L124.868463,15.7417574 C124.771591,15.7417574 124.674718,15.6933212 124.602064,15.6206669 L119.056122,7.07168177 L119.056122,15.4269222 C119.056122,15.5964488 118.910813,15.7417574 118.741287,15.7417574 L115.738244,15.7417574 L115.738244,15.7417574 Z M157.74694,15.8870659 C156.584472,15.8870659 155.422003,15.6691031 154.307971,15.2331775 C153.193939,14.82147 152.200998,14.2160178 151.377583,13.4894752 C151.28071,13.3926028 151.256492,13.2472943 151.304928,13.1262038 L152.152561,10.2442513 C152.200998,10.147379 152.273652,10.0747247 152.370524,10.0747247 C152.467396,10.0505066 152.564269,10.0747247 152.636923,10.147379 C153.920482,11.3582834 155.373567,12.4480974 157.189924,12.5449697 C157.674285,12.5691878 158.207083,12.5934059 158.667227,12.4480974 C160.096094,11.9879537 159.490642,10.5348684 158.425046,10.0989428 C158.061775,9.95363428 157.553195,9.78410766 156.899307,9.59036295 C155.930583,9.32396398 155.131386,9.03334692 154.525934,8.74272986 C153.872046,8.45211281 153.31503,7.99196913 152.830668,7.38651692 C152.370524,6.75684663 152.128343,5.93343163 152.128343,4.94049001 C152.128343,3.99598456 152.370524,3.17256956 152.854886,2.470245 C153.339248,1.76792044 154.017354,1.21090441 154.864987,0.847633089 C155.71262,0.484361765 156.705562,0.290617059 157.819594,0.290617059 C158.812536,0.290617059 159.781259,0.435925589 160.749983,0.750760736 C161.694488,1.0413778 162.542121,1.4530853 163.292882,1.93744706 C163.413972,2.03431941 163.462409,2.17962794 163.389754,2.32493647 L162.590557,5.03736236 C162.566339,5.13423471 162.493685,5.18267089 162.396813,5.20688898 C162.324158,5.23110707 162.227286,5.23110707 162.154632,5.18267089 C161.064818,4.50456442 159.975004,3.68114942 158.691445,3.5116228 C157.843812,3.39053236 156.560253,3.43896853 156.269636,4.45612824 C155.906365,5.76390501 157.819594,6.10295824 158.691445,6.36935721 C159.660169,6.65997427 160.459366,6.95059133 161.089036,7.24120839 C161.742924,7.55604354 162.324158,8.0404053 162.784302,8.64585751 C163.268664,9.27552781 163.510845,10.1231609 163.510845,11.1403206 C163.510845,12.1332622 163.244446,12.9808953 162.735866,13.707438 C162.251504,14.4339806 161.54918,14.9667785 160.677328,15.354268 C159.805477,15.6933212 158.836754,15.8870659 157.74694,15.8870659 L157.74694,15.8870659 Z M173.072146,15.7417574 L173.072146,1.2351225 C173.072146,0.629670295 173.193236,0.508579854 173.386981,0.508579854 L183.994504,0.508579854 C184.16403,0.508579854 184.309339,0.629670295 184.309339,0.799196913 L184.309339,3.53584089 C184.309339,3.7053675 184.16403,3.85067603 183.994504,3.85067603 L176.82595,3.85067603 L176.82595,6.36935721 L181.354732,6.36935721 C181.524259,6.36935721 181.669567,6.51466574 181.669567,6.68419236 L181.669567,9.39661825 C181.669567,9.56614487 181.524259,9.7114534 181.354732,9.7114534 L176.82595,9.7114534 L176.82595,12.3027888 L183.970286,12.3027888 C184.139812,12.3027888 184.285121,12.4480974 184.285121,12.617624 L184.285121,15.3300499 C184.285121,15.4995765 184.139812,15.644885 183.970286,15.644885 L173.386981,15.644885 C173.193236,15.644885 173.072146,15.4995765 173.072146,15.7417574 L173.072146,15.7417574 Z M194.185475,15.7417574 C194.088603,15.7417574 193.991731,15.6933212 193.943294,15.5964488 C193.87064,15.5237946 193.87064,15.4027041 193.894858,15.3058318 L199.537673,0.799196913 C199.586109,0.678106471 199.707199,0.605452207 199.82829,0.605452207 L203.073514,0.605452207 C203.194604,0.605452207 203.315695,0.678106471 203.364131,0.799196913 L208.910073,15.3058318 C208.934291,15.4027041 208.934291,15.4995765 208.861637,15.5964488 C208.813201,15.6933212 208.716328,15.7417574 208.619456,15.7417574 L205.253142,15.7417574 C205.132051,15.7417574 205.010961,15.6691031 204.962525,15.5480127 L204.066455,13.3199485 L198.617385,13.3441666 L197.721316,15.5480127 C197.67288,15.6691031 197.55179,15.7417574 197.430699,15.7417574 L194.185475,15.7417574 L194.185475,15.7417574 Z M199.610327,10.2926875 L203.097732,10.2926875 L201.354029,5.1584528 L199.610327,10.2926875 Z M218.568247,15.7417574 C218.374502,15.7417574 218.253411,15.5964488 218.253411,15.4269222 L218.253411,0.920287354 C218.253411,0.750760736 218.374502,0.605452207 218.568247,0.605452207 L224.47746,0.605452207 C226.318035,0.605452207 227.77112,1.06559588 228.78828,2.01010133 C230.289801,3.36631427 230.798381,5.93343163 230.071839,7.82244251 C229.80544,8.50054898 229.345296,9.13021928 228.764062,9.59036295 C228.425009,9.85676192 228.061737,10.0505066 227.698466,10.2442513 C228.739844,11.8910813 230.314019,15.2331775 230.314019,15.2331775 C230.338238,15.2816137 230.386674,15.354268 230.386674,15.4269222 C230.386674,15.5964488 230.241365,15.7417574 230.071839,15.7417574 L226.487561,15.7417574 C226.390689,15.7417574 226.269599,15.6691031 226.221163,15.5722308 L224.114189,10.9465759 C223.363428,10.9950121 222.782194,10.970794 222.007215,10.970794 L222.007215,15.4269222 C222.007215,15.5964488 221.861907,15.7417574 221.69238,15.7417574 L218.568247,15.7417574 L218.568247,15.7417574 Z M222.007215,7.60447972 C222.007215,7.60447972 225.058694,7.94353295 226.12429,7.24120839 C226.535998,6.97480942 226.778179,6.32092104 226.778179,5.83655927 C226.75396,5.30376133 226.487561,4.7467453 226.051636,4.40769206 C225.591492,4.02020265 224.453242,3.89911221 223.872008,3.89911221 L222.007215,3.94754839 L222.007215,7.60447972 L222.007215,7.60447972 Z M247.600891,15.7417574 C246.172024,15.7417574 244.864247,15.4027041 243.701779,14.7245977 C242.53931,14.0222731 241.619023,13.0777677 240.965135,11.8910813 C240.311246,10.704395 239.972193,9.37240016 239.972193,7.89509678 C239.972193,6.46622957 240.311246,5.13423471 240.989353,3.94754839 C241.667459,2.78508015 242.611965,1.84057471 243.774433,1.16246824 C244.961119,0.484361765 246.293114,0.14530853 247.697763,0.14530853 C248.763359,0.14530853 249.804737,0.387489412 250.821897,0.823415001 C251.839056,1.28355868 252.710907,1.88901088 253.43745,2.66398971 C253.534322,2.78508015 253.534322,2.95460677 253.43745,3.07569721 L251.136732,4.96470809 C251.064077,5.03736236 250.991423,5.08579854 250.894551,5.08579854 C250.797678,5.08579854 250.700806,5.03736236 250.65237,4.96470809 C249.417247,3.46318662 247.431364,3.14835147 245.760316,4.18972927 C244.307231,5.08579854 243.774433,6.73262854 243.847087,8.37945854 C243.919741,10.0505066 245.130646,11.4793738 246.72904,11.9637356 C248.182125,12.3996612 249.610992,12.060608 250.65237,10.9465759 C250.725024,10.8981397 250.797678,10.8497035 250.894551,10.8739216 C250.991423,10.8739216 251.064077,10.8981397 251.112514,10.970794 L253.461668,12.617624 C253.558541,12.7387144 253.558541,12.908241 253.461668,13.0293315 C252.686689,13.8527465 251.766402,14.530853 250.749242,15.0152147 C249.707865,15.4995765 248.642269,15.7417574 247.600891,15.7417574 L247.600891,15.7417574 Z M263.410459,15.7417574 C263.240932,15.7417574 263.095624,15.5964488 263.095624,15.4269222 L263.095624,0.920287354 C263.095624,0.750760736 263.240932,0.605452207 263.410459,0.605452207 L266.55881,0.605452207 C266.728337,0.605452207 266.873645,0.750760736 266.873645,0.920287354 L266.873645,6.87793707 L272.346933,6.87793707 L272.346933,0.920287354 C272.346933,0.750760736 272.492242,0.605452207 272.661769,0.605452207 L275.81012,0.605452207 C275.979647,0.605452207 276.124955,0.750760736 276.124955,0.920287354 L276.124955,15.4269222 C276.124955,15.5964488 275.979647,15.7417574 275.81012,15.7417574 L272.661769,15.7417574 C272.492242,15.7417574 272.346933,15.5964488 272.346933,15.4269222 L272.346933,10.2200332 L266.873645,10.2200332 L266.873645,15.4269222 C266.873645,15.5964488 266.728337,15.7417574 266.55881,15.7417574 L263.410459,15.7417574 Z" id="Shape"></path>
            </g>
        </g>
    </g>
</svg>