<svg width="106" height="93" viewBox="0 0 106 93" fill="none" xmlns="http://www.w3.org/2000/svg">
<g clip-path="url(#clip0_39_2294)">
<path d="M58.1928 61.8989C42.5318 67.0278 26.3545 70.9975 9.74945 73.7193L5.33329 51.695L1.7159 33.6565L0 25.0985C6.31227 27.4034 13.1275 28.6594 20.2412 28.6594C23.3072 28.6594 26.3141 28.4281 29.251 27.9762L32.8819 32.2364L49.2475 51.4153L58.1928 61.8989Z" fill="white"/>
<path d="M83.7242 61.5789C81.9061 62.1087 80.0827 62.6197 78.2565 63.1173L74.6983 55.9982H74.6929L70.3708 47.346C72.2078 46.8754 74.0393 46.3724 75.8548 45.8372L79.9025 53.93L83.7242 61.5789Z" fill="#DF912F"/>
<path d="M78.2565 63.1173C76.4249 63.6148 74.5853 64.0963 72.7403 64.5615L69.4537 57.983H69.4484L64.8009 48.6827C66.6674 48.2658 68.5259 47.8221 70.3709 47.346L74.6956 55.9982H74.701L78.2592 63.1173H78.2565Z" fill="#272525"/>
<path d="M72.7377 64.5616C70.89 65.0295 69.0369 65.4814 67.1758 65.9117L64.1608 59.8845L59.1395 49.8419C61.0356 49.4869 62.9237 49.0996 64.7982 48.6827L69.4457 57.983H69.4511L72.7377 64.5616Z" fill="#CB2229"/>
<path d="M64.7982 48.6827C62.9209 49.0996 61.0356 49.4896 59.1395 49.8419L64.1608 59.8845L67.1757 65.9117C65.6292 66.2748 64.072 66.6298 62.5148 66.9687L58.1928 61.8989L49.2475 51.4152L32.8818 32.2364C38.3012 31.5156 43.6398 30.5474 48.8925 29.3425C50.7536 28.9149 52.6067 28.4576 54.4436 27.9708C56.2805 27.4894 58.0986 26.9784 59.9113 26.4324C61.7187 25.8972 63.518 25.3271 65.3011 24.7273L75.8547 45.8372C74.042 46.3724 72.2104 46.8727 70.3708 47.346C68.5231 47.8221 66.6674 48.2631 64.8009 48.6827" fill="#E4E4E4"/>
<path d="M34.8882 6.20737L34.9017 6.22351L35.4288 13.1974L38.2851 11.1803L39.0758 12.3018L34.1325 15.7928L34.1217 15.7766L33.5757 8.81619L30.7545 10.8091L29.9637 9.68759L34.8882 6.20737Z" fill="white"/>
<path d="M54.8391 7.04381L53.9246 5.54038L50.5305 6.12938L50.1755 7.85335L48.6451 8.11961L50.3153 0.322742L52.1684 1.90735e-06L56.3694 6.77755L54.8391 7.04381ZM50.8183 4.69588L53.1716 4.28707L51.4772 1.50343L50.821 4.69588H50.8183Z" fill="white"/>
<path d="M75.6155 10.2551L74.2116 9.7898L75.992 4.40272L71.3177 8.94529L71.2988 8.93991L70.2526 2.50662L68.4722 7.8937L67.0682 7.42841L69.4 0.411497L71.4548 1.08925L72.2321 6.15359L75.871 2.54965L77.9285 3.2301L75.6155 10.2551Z" fill="white"/>
<path d="M91.0639 19.8217C90.1441 20.7092 88.9419 20.6043 87.8581 19.4801L85.1067 16.6292L90.4292 11.4923L93.1295 14.2893C94.1192 15.3167 94.138 16.4732 93.307 17.2747C92.7745 17.7884 92.1882 17.9578 91.5481 17.783C91.8036 18.4904 91.6637 19.2407 91.0639 19.8217ZM88.6434 18.4258C89.1651 18.9664 89.6735 19.0067 90.0903 18.6006C90.4615 18.2402 90.3835 17.6862 89.8913 17.1779L88.3368 15.5669L87.0673 16.7933L88.6434 18.4285V18.4258ZM90.518 13.461L89.27 14.6632L90.7385 16.1828C91.2065 16.6696 91.6933 16.7314 92.1182 16.3199C92.4813 15.9676 92.4544 15.4673 92.0133 15.0101L90.518 13.4583V13.461Z" fill="white"/>
<path d="M102.024 28.205L95.1353 30.9034L95.6747 32.2808L102.564 29.5823L102.024 28.205Z" fill="white"/>
<path d="M98.0513 49.1077L99.7027 48.4998L99.7807 45.0573L98.1589 44.3741L98.1965 42.8223L105.523 45.9717L105.48 47.8517L98.0164 50.6622L98.0513 49.1104V49.1077ZM101.133 45.6167L101.08 48.005L104.138 46.8807L101.133 45.6167Z" fill="white"/>
<path d="M92.9062 65.3926L96.4079 64.8171L97.0104 63.6417L94.4715 62.3373L95.1492 61.0222L101.728 64.4029L99.9124 67.9369C99.2158 69.2897 98.0378 69.7792 96.8275 69.1552C95.6334 68.542 95.2299 67.4313 95.7033 66.2371C95.4612 66.3151 95.1116 66.3958 94.6382 66.4846L92.1101 66.9445L92.9089 65.3926H92.9062ZM99.8505 65.1021L98.2153 64.263L97.1233 66.3877C96.7898 67.0359 96.9109 67.5146 97.4864 67.8105C98.0028 68.0767 98.4251 67.8777 98.7586 67.2295L99.8505 65.1048V65.1021Z" fill="white"/>
<path d="M84.9149 75.0911L83.7872 76.0484L88.5722 81.6847L89.6998 80.7273L84.9149 75.0911Z" fill="white"/>
<path d="M74.3137 82.5651L74.8543 84.211C73.7112 83.8749 72.474 83.8695 71.6699 84.1331C70.9383 84.3751 70.5107 84.8027 70.6559 85.2438C70.8711 85.8947 71.9335 85.6472 73.0604 85.6203C73.8511 85.5935 74.5476 85.5773 75.134 86.0076C75.4325 86.2094 75.6423 86.5079 75.7714 86.8979C75.9892 87.5595 75.879 88.1754 75.4567 88.7482C75.0345 89.3211 74.3728 89.7487 73.5014 90.0365C72.6193 90.327 71.7802 90.413 70.9948 90.2947L70.4865 88.7482C71.4547 88.9526 72.3638 88.9096 73.2164 88.6299C73.9694 88.3825 74.3621 87.9871 74.2249 87.5756C73.8188 86.3411 69.9298 88.3771 69.1175 85.9081C68.8997 85.2465 68.9965 84.6252 69.4161 84.0416C69.8356 83.458 70.4731 83.0277 71.3471 82.7399C72.2992 82.4252 73.2836 82.3714 74.3137 82.5651Z" fill="white"/>
<path d="M51.1947 90.2544L55.2989 90.7224L55.4602 89.305L51.6062 88.8666L51.7595 87.5434L55.6109 87.9818L55.8314 86.0588L51.7245 85.5908L51.8778 84.2487L57.4532 84.8834L56.6167 92.2339L51.0414 91.5991L51.1947 90.2544Z" fill="white"/>
</g>
<defs>
<clipPath id="clip0_39_2294">
<rect width="105.523" height="92.2338" fill="white"/>
</clipPath>
</defs>
</svg>
