<svg width="26" height="25" viewBox="0 0 26 25" fill="none" xmlns="http://www.w3.org/2000/svg">
<path d="M13.0527 0.400024C6.13656 0.400024 0.508018 5.82128 0.50558 12.4838C0.503954 14.6145 1.08274 16.6939 2.18016 18.5253L0.399902 24.7871L7.05189 23.1069C8.90223 24.0748 10.9597 24.5796 13.0479 24.5782H13.0527C19.9689 24.5782 25.5975 19.1561 25.5999 12.4936C25.6015 9.26636 24.2976 6.22854 21.928 3.9451C19.5592 1.66084 16.4092 0.400837 13.0527 0.400024ZM13.0527 22.537H13.0487C11.1774 22.537 9.34184 22.0525 7.74042 21.1372L7.35835 20.9193L3.41252 21.9159L4.46604 18.2091L4.21811 17.8295C3.1767 16.2412 2.62233 14.3831 2.62319 12.4838C2.62563 6.94552 7.3047 2.44122 13.0568 2.44122C15.8418 2.44204 18.4602 3.48824 20.4298 5.38637C22.3995 7.2845 23.4831 9.80857 23.4815 12.4928C23.479 18.0311 18.8008 22.537 13.0519 22.537H13.0527ZM18.7731 15.0136C18.4594 14.8632 16.9181 14.1324 16.6303 14.0308C16.3434 13.9308 16.1345 13.8788 15.9255 14.1812C15.7174 14.4836 15.1159 15.164 14.9338 15.3648C14.7501 15.5664 14.5672 15.5907 14.2534 15.4404C13.9396 15.2892 12.9292 14.9705 11.7326 13.9414C10.8002 13.1415 10.171 12.153 9.9881 11.8498C9.80519 11.5482 9.96859 11.3848 10.1255 11.2344C10.2661 11.1003 10.4393 10.8824 10.5953 10.706C10.7514 10.5296 10.8034 10.4036 10.9091 10.202C11.0132 10.0012 10.9611 9.82401 10.8823 9.67362C10.8034 9.52161 10.1775 8.03562 9.91493 7.43164C9.66131 6.8431 9.40281 6.92195 9.21015 6.91219C9.02724 6.90406 8.81914 6.90163 8.6086 6.90163C8.40131 6.90163 8.0607 6.97723 7.77293 7.27962C7.48598 7.58203 6.67552 8.31201 6.67552 9.798C6.67552 11.2848 7.79895 12.7204 7.95584 12.922C8.11273 13.1228 10.1669 16.1736 13.3121 17.4824C14.0599 17.7921 14.6436 17.9782 15.0996 18.1181C15.8508 18.3481 16.5344 18.3148 17.0742 18.2376C17.6757 18.1506 18.9292 17.5076 19.1893 16.8028C19.4511 16.098 19.4511 15.4932 19.3731 15.3672C19.2966 15.2412 19.0869 15.1656 18.7731 15.0136Z" fill="black"/>
</svg>
