<svg width="310" height="260" viewBox="0 0 310 260" fill="none" xmlns="http://www.w3.org/2000/svg">
<path fill-rule="evenodd" clip-rule="evenodd" d="M84.1112 29.557C74.4777 19.9235 58.8587 19.9235 49.2251 29.557C39.5916 39.1905 39.5916 54.8095 49.2251 64.4431L120.399 135.617L49.2251 206.791C39.5916 216.424 39.5916 232.043 49.2251 241.677C58.8587 251.31 74.4777 251.31 84.1112 241.677L155.285 170.503L226.459 241.677C236.092 251.31 251.711 251.31 261.345 241.677C270.978 232.043 270.978 216.424 261.345 206.791L190.171 135.617L261.345 64.4431C270.978 54.8095 270.978 39.1905 261.345 29.557C251.711 19.9235 236.092 19.9235 226.459 29.557L155.285 100.731L84.1112 29.557Z" fill="black"/>
</svg>
