<svg width="140" height="142" viewBox="0 0 140 142" fill="none" xmlns="http://www.w3.org/2000/svg">
<path d="M123.3 55.2001C123.3 78.3 123.3 101.2 123.3 124.2C125.9 124.2 128.3 124.2 130.9 124.2C130.9 126.8 130.9 129.3 130.9 131.9C90.0002 131.9 49.2002 131.9 8.2002 131.9C8.2002 129.4 8.2002 126.9 8.2002 124.3C10.7002 124.3 13.2002 124.3 15.8002 124.3C15.8002 85.9 15.8002 47.6 15.8002 9.30005C33.8002 9.30005 51.6002 9.30005 69.6002 9.30005C69.6002 24.6 69.6002 39.9001 69.6002 55.2001C87.5002 55.2001 105.3 55.2001 123.3 55.2001ZM54.1002 124.2C54.1002 119.1 54.1002 114.1 54.1002 109.1C46.5002 109.1 38.9002 109.1 31.3002 109.1C31.3002 114.2 31.3002 119.2 31.3002 124.2C38.9002 124.2 46.5002 124.2 54.1002 124.2ZM107.8 109.1C100.2 109.1 92.6002 109.1 85.0002 109.1C85.0002 114.2 85.0002 119.2 85.0002 124.2C92.6002 124.2 100.2 124.2 107.8 124.2C107.8 119.2 107.8 114.2 107.8 109.1ZM23.6002 17C23.6002 22.1 23.6002 27.1 23.6002 32.1C28.7002 32.1 33.7002 32.1 38.7002 32.1C38.7002 27 38.7002 22 38.7002 17C33.7002 17 28.7002 17 23.6002 17ZM61.7002 32.2001C61.7002 27.2001 61.7002 22.2 61.7002 17.1C56.7002 17.1 51.7002 17.1 46.6002 17.1C46.6002 22.2 46.6002 27.2001 46.6002 32.2001C51.7002 32.2001 56.7002 32.2001 61.7002 32.2001ZM38.8002 40.1C33.7002 40.1 28.7002 40.1 23.7002 40.1C23.7002 45.2 23.7002 50.2001 23.7002 55.2001C28.8002 55.2001 33.8002 55.2001 38.8002 55.2001C38.8002 50.1001 38.8002 45.2 38.8002 40.1ZM46.7002 55.2001C51.8002 55.2001 56.8002 55.2001 61.8002 55.2001C61.8002 50.1001 61.8002 45.1 61.8002 40.1C56.7002 40.1 51.7002 40.1 46.7002 40.1C46.7002 45.1 46.7002 50.1001 46.7002 55.2001ZM38.8002 78.2C38.8002 73.1 38.8002 68.1 38.8002 63.1C33.7002 63.1 28.7002 63.1 23.7002 63.1C23.7002 68.2 23.7002 73.2 23.7002 78.2C28.7002 78.2 33.7002 78.2 38.8002 78.2ZM46.7002 78.2C51.8002 78.2 56.8002 78.2 61.8002 78.2C61.8002 73.1 61.8002 68.1 61.8002 63.1C56.7002 63.1 51.7002 63.1 46.7002 63.1C46.7002 68.1 46.7002 73.1 46.7002 78.2ZM92.5002 78.2C92.5002 73.1 92.5002 68.1 92.5002 63.1C87.4002 63.1 82.4002 63.1 77.4002 63.1C77.4002 68.2 77.4002 73.2 77.4002 78.2C82.4002 78.2 87.4002 78.2 92.5002 78.2ZM100.4 63.1C100.4 68.2 100.4 73.2 100.4 78.2C105.5 78.2 110.5 78.2 115.5 78.2C115.5 73.1 115.5 68.1 115.5 63.1C110.4 63.1 105.5 63.1 100.4 63.1ZM23.6002 101.2C28.7002 101.2 33.7002 101.2 38.7002 101.2C38.7002 96.1 38.7002 91.1 38.7002 86.1C33.6002 86.1 28.6002 86.1 23.6002 86.1C23.6002 91.1 23.6002 96.1 23.6002 101.2ZM46.7002 86.1C46.7002 91.2 46.7002 96.2 46.7002 101.2C51.8002 101.2 56.8002 101.2 61.8002 101.2C61.8002 96.1 61.8002 91.1 61.8002 86.1C56.7002 86.1 51.7002 86.1 46.7002 86.1ZM92.5002 86.1C87.4002 86.1 82.4002 86.1 77.4002 86.1C77.4002 91.2 77.4002 96.2 77.4002 101.2C82.5002 101.2 87.5002 101.2 92.5002 101.2C92.5002 96.2 92.5002 91.1 92.5002 86.1ZM115.5 101.2C115.5 96.1 115.5 91.1 115.5 86.1C110.4 86.1 105.4 86.1 100.4 86.1C100.4 91.2 100.4 96.2 100.4 101.2C105.4 101.2 110.4 101.2 115.5 101.2Z" fill="#E0E7FF"/>
</svg>
