<svg width="45" height="41" viewBox="0 0 45 41" fill="none" xmlns="http://www.w3.org/2000/svg">
<path d="M17.8616 29.2284V26.9032H2.32979V35.8773C2.3305 36.4628 2.44247 37.043 2.65984 37.5876C2.88378 38.1326 3.21359 38.6288 3.63058 39.048C4.0444 39.4683 4.53965 39.8017 5.08669 40.0281C5.62506 40.2598 6.20836 40.3713 6.79518 40.3548H38.0529C38.6397 40.3713 39.223 40.2598 39.7614 40.0281C40.3058 39.7968 40.8001 39.4641 41.2175 39.048C41.6345 38.6288 41.9643 38.1326 42.1883 37.5876C42.4056 37.043 42.5176 36.4628 42.5183 35.8773V26.9032H26.9865V29.2284H17.8616ZM40.1885 9.051H31.2383V4.49667L26.773 0H17.8422L13.3768 4.49667V8.97413H4.46541C3.8782 8.97558 3.29725 9.09369 2.75699 9.32145C2.21673 9.54921 1.72816 9.88199 1.32023 10.3001C0.900182 10.7126 0.567162 11.2036 0.340522 11.7447C0.113881 12.2857 -0.0018611 12.8659 2.26288e-05 13.4516V20.1774C0.00238047 20.769 0.114245 21.3552 0.330073 21.9069C0.529489 22.4752 0.832153 23.0027 1.22315 23.4634C2.06507 24.2914 3.20094 24.7604 4.38776 24.7701H17.7839V20.1774H26.7147V24.6741H40.1109C40.6981 24.6726 41.2791 24.5545 41.8193 24.3267C42.3596 24.099 42.8481 23.7662 43.2561 23.3481C44.0985 22.503 44.5725 21.3646 44.5763 20.1774V13.4516C44.5716 12.2702 44.0973 11.1381 43.2561 10.3001C42.4508 9.47425 41.3479 8.99754 40.1885 8.97413V9.051ZM26.7924 9.051H17.8616V4.49667H26.7924V9.051Z" fill="#FFFFFF"/>
</svg>
