<svg width="68" height="52" viewBox="0 0 68 52" fill="none" xmlns="http://www.w3.org/2000/svg">
<path fill-rule="evenodd" clip-rule="evenodd" d="M37.1186 16.0651H41.4045H45.7669C46.4174 16.0651 46.6087 15.8921 46.4748 15.2195C45.8817 12.6061 45.3268 9.99265 44.7911 7.35998C44.777 7.24661 44.7447 7.13628 44.6954 7.0333C44.6528 6.9301 44.5792 6.84279 44.4849 6.78348C44.4001 6.71399 44.3027 6.66177 44.1979 6.62975C44.084 6.6104 43.9675 6.6104 43.8535 6.62975H37.0612C36.4489 6.62975 36.2002 6.8027 36.2002 7.43684V15.1235C36.2002 15.8921 36.5063 16.0651 37.1186 16.0651ZM54.6065 25.5773C53.286 26.0139 51.855 25.9723 50.5618 25.4598C49.2687 24.9473 48.195 23.9963 47.5271 22.7717C47.2018 22.2529 47.087 22.2336 46.7618 22.7717C46.2262 23.6899 45.4611 24.4516 44.5423 24.9816C43.624 25.5369 42.572 25.8293 41.5001 25.8271C40.4292 25.8217 39.3792 25.5299 38.4579 24.9816C37.5192 24.4629 36.7437 23.6908 36.2193 22.7525C35.8175 22.0799 35.8175 22.0799 35.3966 22.7525C34.8695 23.6822 34.1028 24.4522 33.1771 24.9816C32.2602 25.511 31.2212 25.7896 30.1636 25.7896C29.106 25.7896 28.0669 25.511 27.1501 24.9816C26.2293 24.4847 25.4466 23.7647 24.8732 22.887C24.6539 22.5328 24.5439 22.355 24.4319 22.3537C24.3191 22.3525 24.2043 22.5302 23.9739 22.887C23.3021 24.0251 22.2797 24.9126 21.0611 25.4153C19.8426 25.918 18.4942 26.0086 17.2199 25.6734C16.2632 25.4236 16.2632 25.4236 16.2632 26.4421V43.5832V46.0237C16.2632 46.8308 16.5885 47.0614 17.3347 47.0614H21.0465C21.5592 47.0614 21.8175 47.0614 21.9476 46.9323C22.0797 46.8012 22.0797 46.537 22.0797 46.0045V31.6113C22.0797 30.5352 22.1754 30.4391 23.2086 30.4391H30.3836C31.4933 30.4391 31.589 30.5352 31.589 31.669V45.8508C31.589 46.4506 31.589 46.7484 31.7379 46.8963C31.8848 47.0422 32.1766 47.0422 32.7561 47.0422H54.109C55.0465 47.0422 55.3144 46.7924 55.3144 45.8508V26.1346C55.3144 25.635 55.2187 25.4236 54.6065 25.5773ZM50.244 39.0289C50.244 39.836 50.1101 39.9705 49.2682 39.9705H38.9554C38.1326 39.9705 37.9987 39.836 37.9987 39.0097V31.4384C37.9987 30.5928 38.1518 30.4199 38.9936 30.4199H49.2491C50.0336 30.4199 50.244 30.6505 50.244 31.4768V39.0289ZM30.2114 16.065H25.7916C25.1984 16.065 25.0262 15.8728 25.1793 15.2963L25.1795 15.2955C25.7534 12.6247 26.3274 9.95384 26.8822 7.283C26.9778 6.78337 27.2266 6.62964 27.7049 6.62964H34.6503C35.2052 6.62964 35.4157 6.8218 35.4157 7.37908V15.2771C35.4157 15.892 35.1478 16.065 34.5929 16.065H30.2114ZM47.3361 15.3732C47.3077 15.4803 47.3077 15.5929 47.3361 15.6999C47.3906 15.7954 47.4619 15.88 47.5466 15.9497C47.6337 16.0267 47.7392 16.0797 47.8527 16.1035C47.9603 16.1233 48.0705 16.1233 48.178 16.1035H56.8454C57.5916 16.1035 57.649 15.9689 57.3237 15.2771C56.0482 12.6253 54.7344 9.96697 53.3823 7.30227C53.2978 7.10621 53.1582 6.93922 52.9805 6.82186C52.7979 6.70651 52.5834 6.65266 52.3682 6.66813H46.2073C45.5567 6.66813 45.4419 6.89873 45.5759 7.49444C46.2455 10.0695 46.8004 12.6829 47.3361 15.3732ZM19.0184 16.0457H14.7325C13.9672 16.0457 13.8906 15.9112 14.2542 15.3155C15.6445 12.6508 16.9775 9.9733 18.253 7.28298C18.3284 7.10856 18.447 6.95641 18.5974 6.841C18.7565 6.7383 18.9447 6.69103 19.1332 6.70648H25.4089C25.9829 6.70648 26.1168 6.87943 25.9829 7.43671L25.8739 7.94019C25.3365 10.422 24.8022 12.8892 24.3183 15.3731C24.2987 15.4607 24.2665 15.5448 24.2226 15.623C24.176 15.7289 24.1037 15.8214 24.0122 15.892C23.9254 15.9584 23.8285 16.0103 23.7252 16.0457H23.3999H19.0184ZM34.6506 16.872H25.6388C25.1413 16.872 24.8734 17.0258 24.8926 17.5638C24.9053 17.923 24.9011 18.5134 24.8968 19.1007L24.8968 19.1016V19.1016V19.1017C24.8947 19.3938 24.8926 19.6851 24.8926 19.9467C24.937 21.2552 25.4618 22.5009 26.3658 23.4441C27.0466 24.145 27.9084 24.6413 28.8545 24.8774C29.8007 25.1135 30.7936 25.0799 31.7218 24.7805C32.65 24.4811 33.4766 23.9276 34.1089 23.1824C34.7412 22.4371 35.1541 21.5295 35.3011 20.5616C35.3011 20.1237 35.325 19.6858 35.3491 19.2424C35.3779 18.7129 35.4072 18.1758 35.3968 17.6215C35.435 17.0642 35.2054 16.8528 34.6506 16.872ZM41.5002 16.872H45.92C46.5323 16.8528 46.7619 17.0642 46.6279 17.6599C46.6855 18.6135 46.6855 19.5696 46.6279 20.5232C46.4254 21.8018 45.7609 22.9606 44.7614 23.7782C43.7619 24.5958 42.4976 25.015 41.2098 24.9555C39.9221 24.8961 38.7014 24.3623 37.7808 23.456C36.8602 22.5498 36.3043 21.3346 36.2194 20.0428C36.2194 19.7868 36.2236 19.5159 36.2279 19.245V19.245L36.2279 19.2442C36.2364 18.7019 36.2449 18.1595 36.2194 17.7368C36.1811 17.1026 36.4107 16.872 37.0804 16.872H41.5002ZM57.228 16.8721H48.2736C47.757 16.8721 47.5274 17.0451 47.5465 17.5831C47.5593 17.9419 47.555 18.5226 47.5508 19.1034C47.5486 19.3938 47.5465 19.6842 47.5465 19.9468C47.5902 21.2498 48.1154 22.4897 49.0198 23.425C49.6881 24.1251 50.5366 24.6254 51.471 24.8704C52.4054 25.1154 53.3891 25.0954 54.3128 24.8127C55.2366 24.53 56.0643 23.9956 56.7038 23.2689C57.3434 22.5422 57.7699 21.6517 57.9359 20.6962C58.0505 19.7014 58.0889 18.6992 58.0507 17.6985C58.1081 17.0451 57.8211 16.8529 57.228 16.8721ZM24.0889 17.6792C24.1082 18.6607 24.0698 19.6424 23.9741 20.6194H23.9549C23.7396 21.9045 23.0574 23.0637 22.0403 23.8729C21.0231 24.6821 19.7434 25.0837 18.4485 25C17.1536 24.9163 15.9356 24.3533 15.0302 23.4199C14.1247 22.4865 13.596 21.249 13.5464 19.9468V17.5832C13.5464 17.0451 13.776 16.8721 14.2926 16.8721H23.2279C23.8401 16.8529 24.0889 17.0451 24.0889 17.6792Z" fill="#FFFFFF"/>
</svg>
