<svg width="50" height="29" viewBox="0 0 50 29" fill="none" xmlns="http://www.w3.org/2000/svg">
<path d="M46.7983 1.23002e-09H2.46234C2.13736 -1.01451e-05 1.81559 0.062752 1.5156 0.184667C1.2156 0.306582 0.943311 0.485238 0.714432 0.710331C0.485554 0.935423 0.304615 1.2025 0.182052 1.49615C0.0594888 1.78981 -0.00227422 2.10423 0.000325625 2.42129V26.4228C-0.0049998 26.7396 0.0550443 27.0543 0.176887 27.3481C0.298729 27.6419 0.479881 27.9088 0.70957 28.1329C0.939259 28.357 1.21279 28.5337 1.5139 28.6526C1.81502 28.7714 2.13756 28.83 2.46234 28.8248H46.7983C47.1233 28.8274 47.4455 28.7671 47.7465 28.6475C48.0475 28.528 48.3212 28.3514 48.552 28.1281C48.7827 27.9048 48.9658 27.6392 49.0907 27.3465C49.2157 27.0538 49.28 26.7398 49.28 26.4228V2.42129C49.28 1.77912 49.0185 1.16326 48.5531 0.709178C48.0877 0.255099 47.4565 1.23002e-09 46.7983 1.23002e-09ZM3.6835 25.2313V20.4272C4.33057 20.4261 4.97151 20.5494 5.5697 20.7901C6.16789 21.0308 6.71159 21.3842 7.16971 21.83C7.62116 22.2792 7.98196 22.8072 8.2333 23.3865C8.49627 23.994 8.62383 24.649 8.60753 25.3082L3.6835 25.2313ZM3.6835 8.41685V3.61271H8.60753C8.62205 4.27176 8.49456 4.92644 8.2333 5.53437C7.97722 6.1112 7.61696 6.63842 7.16971 7.09091C6.70933 7.53136 6.16812 7.88339 5.57433 8.1286C4.96765 8.33756 4.3266 8.43529 3.6835 8.41685ZM24.6008 21.5418C21.213 21.5418 18.4556 18.3134 18.4556 14.3356C18.4556 10.3577 21.1933 7.20621 24.6008 7.20621C28.0082 7.20621 30.7657 10.4346 30.7657 14.4124C30.7657 18.3902 28.0082 21.5418 24.6008 21.5418ZM45.5378 25.1545H40.6137C40.6111 24.5229 40.7367 23.897 40.9832 23.313C41.2298 22.729 41.5924 22.1984 42.0501 21.7518C42.5079 21.3052 43.0517 20.9514 43.6503 20.7109C44.2489 20.4703 44.8904 20.3478 45.5378 20.3503V25.1545ZM45.5378 8.33999C44.8904 8.34253 44.2489 8.22 43.6503 7.97947C43.0517 7.73894 42.5079 7.38517 42.0501 6.93855C41.5924 6.49194 41.2298 5.96133 40.9832 5.37731C40.7367 4.7933 40.6111 4.16745 40.6137 3.53585H45.5378V8.33999Z" fill="#E0E7FF"/>
</svg>
