<svg width="68" height="52" viewBox="0 0 68 52" fill="none" xmlns="http://www.w3.org/2000/svg">
<path d="M59.9388 16.7199L35.7733 9.30229C34.451 8.89924 33.0394 8.89924 31.7171 9.30229L7.53248 16.7199C7.01044 16.8601 6.56387 17.2002 6.28848 17.6671C6.01308 18.1341 5.93078 18.6908 6.05921 19.218C6.15406 19.5727 6.3401 19.8962 6.59869 20.1559C6.85727 20.4156 7.1793 20.6025 7.53248 20.6977L11.7418 21.9852C10.8032 23.1468 10.266 24.5834 10.2112 26.0783C9.89777 26.2404 9.6196 26.4635 9.39281 26.7345C9.16601 27.0055 8.99513 27.3191 8.89009 27.6571C8.78505 27.995 8.74795 28.3506 8.78094 28.7031C8.81394 29.0555 8.91637 29.3979 9.08228 29.7103C9.29743 30.1061 9.60627 30.4427 9.98155 30.6903L7.76208 40.6829C7.68205 41.0447 7.74779 41.4236 7.94496 41.7368C8.14213 42.0501 8.45471 42.2722 8.81442 42.3548H9.12055H13.9804C14.3509 42.3548 14.7061 42.207 14.9681 41.9439C15.23 41.6808 15.3772 41.324 15.3772 40.952C15.3865 40.8561 15.3865 40.7596 15.3772 40.6637L13.1194 30.6903C13.4113 30.4964 13.6623 30.2465 13.8579 29.955C14.0534 29.6635 14.1898 29.3361 14.2591 28.9915C14.3284 28.6469 14.3294 28.292 14.2618 27.9471C14.1943 27.6022 14.0597 27.2741 13.8656 26.9815C13.6348 26.6338 13.327 26.3444 12.9664 26.136C12.9927 25.4965 13.1693 24.8723 13.4819 24.3145C13.7945 23.7567 14.2342 23.2812 14.7649 22.9268L31.7171 28.1537C33.0327 28.5575 34.4385 28.5575 35.7542 28.1537L59.9388 20.6977C60.199 20.6285 60.443 20.5085 60.6569 20.3445C60.8709 20.1804 61.0505 19.9757 61.1856 19.7419C61.3206 19.508 61.4085 19.2498 61.444 18.9818C61.4796 18.7139 61.4622 18.4415 61.3929 18.1803C61.3141 17.8231 61.1354 17.4959 60.8778 17.2372C60.6202 16.9785 60.2944 16.799 59.9388 16.7199ZM36.5769 30.8056C34.7087 31.3957 32.7052 31.3957 30.8369 30.8056L18.2663 26.9623L17.0418 36.8204C17.0418 39.9143 24.4846 42.3932 33.6878 42.3932C42.8909 42.3932 50.3338 39.8951 50.3338 36.8204L49.0902 26.9623L36.5769 30.8056Z" fill="#E0E7FF"/>
</svg>
