<svg width="26" height="33" viewBox="0 0 26 33" fill="none" xmlns="http://www.w3.org/2000/svg">
<path d="M18.91 16.3917H6.3098V20.4849H18.91V16.3917ZM24.7344 6.78346L18.3275 0.461216C18.1891 0.308256 18.0161 0.189753 17.8227 0.115319C17.6317 0.0381795 17.4272 -0.000997783 17.2209 1.93071e-05H16.8132V8.14784H25.2392V7.76351C25.2333 7.35801 25.0659 6.97122 24.7732 6.68738L24.7344 6.78346ZM14.6776 8.70512V0.0576685H1.5726C1.36628 0.0566514 1.16178 0.0958286 0.970742 0.172968C0.773971 0.251612 0.595568 0.369333 0.446543 0.518866C0.303794 0.661822 0.191552 0.831734 0.116492 1.0185C0.0390957 1.20102 -0.000514532 1.39705 5.04603e-06 1.59499V31.2077C-0.000514532 31.4056 0.0390957 31.6017 0.116492 31.7842C0.191552 31.971 0.303794 32.1409 0.446543 32.2838C0.596316 32.4278 0.774882 32.539 0.970742 32.6105C1.16178 32.6877 1.36628 32.7268 1.5726 32.7258H23.6472C23.8535 32.7268 24.058 32.6877 24.249 32.6105C24.4449 32.539 24.6234 32.4278 24.7732 32.2838C24.916 32.1409 25.0282 31.971 25.1033 31.7842C25.1807 31.6017 25.2203 31.4056 25.2198 31.2077V10.2809H16.289C15.8768 10.276 15.4825 10.1131 15.1892 9.82636C14.8959 9.53963 14.7264 9.15147 14.7164 8.74355L14.6776 8.70512ZM4.19359 4.65043C4.19446 4.58536 4.20868 4.52116 4.23538 4.4617C4.26208 4.40224 4.3007 4.34877 4.34891 4.30453C4.44648 4.20701 4.57912 4.15173 4.71779 4.15079H9.92094C10.0596 4.15173 10.1922 4.20701 10.2898 4.30453C10.338 4.34877 10.3766 4.40224 10.4033 4.4617C10.43 4.52116 10.4443 4.58536 10.4451 4.65043V5.68812C10.4443 5.75318 10.43 5.81739 10.4033 5.87685C10.3766 5.93631 10.338 5.98978 10.2898 6.03402C10.2449 6.08931 10.189 6.1349 10.1255 6.16795C10.0621 6.20101 9.99243 6.22083 9.92094 6.22618H4.71779C4.57912 6.22525 4.44648 6.16997 4.34891 6.07245C4.3007 6.02821 4.26208 5.97474 4.23538 5.91528C4.20868 5.85582 4.19446 5.79161 4.19359 5.72655V4.65043ZM4.19359 8.74355C4.19453 8.60631 4.25038 8.47502 4.34891 8.37844C4.39818 8.33274 4.45621 8.29728 4.51957 8.27417C4.58294 8.25107 4.65034 8.24078 4.71779 8.24392H9.92094C9.98435 8.22577 10.0517 8.22577 10.1151 8.24392C10.1725 8.23007 10.2324 8.23007 10.2898 8.24392C10.3414 8.29205 10.3813 8.3512 10.4063 8.41687C10.4153 8.48061 10.4153 8.54529 10.4063 8.60904V9.62751C10.4054 9.76476 10.3495 9.89605 10.251 9.99263C10.2017 10.0383 10.1437 10.0738 10.0803 10.0969C10.017 10.12 9.94956 10.1303 9.88211 10.1271H4.71779C4.65034 10.1303 4.58294 10.12 4.51957 10.0969C4.45621 10.0738 4.39818 10.0383 4.34891 9.99263C4.25038 9.89605 4.19453 9.76476 4.19359 9.62751V8.74355ZM21.0262 28.1331C21.0262 28.2707 20.9709 28.4026 20.8726 28.4999C20.7743 28.5972 20.641 28.6519 20.502 28.6519H15.2406C15.1016 28.6519 14.9682 28.5972 14.8699 28.4999C14.7716 28.4026 14.7164 28.2707 14.7164 28.1331V27.1146C14.7073 27.0508 14.7073 26.9862 14.7164 26.9224C14.7376 26.8602 14.7784 26.8063 14.8329 26.7687C14.8746 26.7101 14.9369 26.669 15.0076 26.6534C15.0707 26.6329 15.1387 26.6329 15.2017 26.6534H20.4631C20.5266 26.6352 20.5939 26.6352 20.6573 26.6534L20.832 26.7687L20.9485 26.9224C20.9575 26.9862 20.9575 27.0508 20.9485 27.1146L21.0262 28.1331ZM21.0262 15.3733V21.5994C21.0462 21.7268 21.0462 21.8564 21.0262 21.9838C20.9715 22.1071 20.8923 22.2182 20.7932 22.3104C20.6926 22.4087 20.574 22.487 20.4437 22.541C20.3159 22.5699 20.1832 22.5699 20.0554 22.541H5.24199C5.11419 22.5699 4.98148 22.5699 4.85369 22.541C4.7234 22.487 4.60477 22.4087 4.50423 22.3104C4.40512 22.2182 4.32588 22.1071 4.27125 21.9838C4.25122 21.8564 4.25122 21.7268 4.27125 21.5994V15.3733C4.25122 15.2459 4.25122 15.1163 4.27125 14.9889C4.32588 14.8656 4.40512 14.7545 4.50423 14.6623C4.60477 14.564 4.7234 14.4857 4.85369 14.4317C4.98148 14.4028 5.11419 14.4028 5.24199 14.4317H19.9778C20.1064 14.4118 20.2374 14.4118 20.3661 14.4317C20.4964 14.4857 20.615 14.564 20.7155 14.6623C20.8102 14.7583 20.8888 14.8685 20.9485 14.9889C20.9685 15.1163 20.9685 15.2459 20.9485 15.3733H21.0262Z" fill="#FFFFFF"/>
</svg>
